<?xml version="1.0" encoding="UTF-8" standalone="no"?>
<svg
   xmlns:dc="http://purl.org/dc/elements/1.1/"
   xmlns:cc="http://creativecommons.org/ns#"
   xmlns:rdf="http://www.w3.org/1999/02/22-rdf-syntax-ns#"
   xmlns:svg="http://www.w3.org/2000/svg"
   xmlns="http://www.w3.org/2000/svg"
   xmlns:sodipodi="http://sodipodi.sourceforge.net/DTD/sodipodi-0.dtd"
   xmlns:inkscape="http://www.inkscape.org/namespaces/inkscape"
   width="64"
   height="64"
   viewBox="0 0 16.933333 16.933334"
   version="1.1"
   id="svg8"
   inkscape:version="1.0.1 (3bc2e813f5, 2020-09-07)"
   sodipodi:docname="Cestus_and_Sabaton_Icon_White.svg"
   inkscape:export-filename="C:\Users\GabrielAntonio\Pictures\New\Cestus Sabaton White.png"
   inkscape:export-xdpi="96"
   inkscape:export-ydpi="96">
  <defs
     id="defs2" />
  <sodipodi:namedview
     id="base"
     pagecolor="#ffffff"
     bordercolor="#666666"
     borderopacity="1.0"
     inkscape:pageopacity="0.0"
     inkscape:pageshadow="2"
     inkscape:zoom="3.2758932"
     inkscape:cx="51.1004"
     inkscape:cy="44.867038"
     inkscape:document-units="px"
     inkscape:current-layer="layer1"
     showgrid="false"
     units="px"
     showguides="true"
     inkscape:guide-bbox="true"
     inkscape:window-width="1366"
     inkscape:window-height="705"
     inkscape:window-x="-8"
     inkscape:window-y="-8"
     inkscape:window-maximized="1"
     inkscape:snap-smooth-nodes="true"
     inkscape:document-rotation="0">
    <inkscape:grid
       type="xygrid"
       id="grid943" />
  </sodipodi:namedview>
  <metadata
     id="metadata5">
    <rdf:RDF>
      <cc:Work
         rdf:about="">
        <dc:format>image/svg+xml</dc:format>
        <dc:type
           rdf:resource="http://purl.org/dc/dcmitype/StillImage" />
        <dc:title />
      </cc:Work>
    </rdf:RDF>
  </metadata>
  <g
     inkscape:label="Layer 1"
     inkscape:groupmode="layer"
     id="layer1"
     transform="translate(0,-280.06665)">
    <path
       style="fill:#c0c0c0;fill-opacity:1;stroke:#000000;stroke-width:2;stroke-linecap:butt;stroke-linejoin:round;stroke-miterlimit:4;stroke-dasharray:none;stroke-opacity:1"
       d="M 20 32 L 14 45 L 14 48 L 30 48 L 30 39 L 23 44 L 23 41 L 20 32 z "
       id="path1089"
       transform="matrix(0.26458334,0,0,0.26458334,0,280.06665)" />
    <path
       style="fill:#ffffff;fill-opacity:1;stroke:#000000;stroke-width:0.5291667;stroke-linecap:round;stroke-linejoin:round;stroke-miterlimit:4;stroke-dasharray:none;stroke-opacity:1"
       d="M 10.054166,293.56041 8.99583,294.61874 H 8.4666616 l -2e-7,1.85208 H 12.170833 15.875 v -1.85208 H 15.345831 L 14.2875,293.56041 h -2.116668 z"
       id="path1786"
       inkscape:connector-curvature="0"
       sodipodi:nodetypes="ccccccccccc" />
    <path
       style="fill:#c0c0c0;fill-opacity:1;stroke:#000000;stroke-width:0.5291667;stroke-linecap:round;stroke-linejoin:round;stroke-miterlimit:4;stroke-dasharray:none;stroke-opacity:1"
       d="m 6.0533119,287.1783 7e-7,-1.32293 1.0583324,-1.05833 1.0583352,1.05833 -7e-7,1.32293 -1.0583295,1.05832 z"
       id="path1873-1-7-0-8-4"
       inkscape:connector-curvature="0"
       sodipodi:nodetypes="ccccccc" />
    <path
       style="fill:#c0c0c0;fill-opacity:1;stroke:#000000;stroke-width:0.5291667;stroke-linecap:round;stroke-linejoin:round;stroke-miterlimit:4;stroke-dasharray:none;stroke-opacity:1"
       d="m 14.022912,285.35831 v -2.11668 l 0.793749,-0.79375 1.058339,1.05832 -6e-6,1.58751 -1.058332,1.05835 z"
       id="path1873-1-7-0"
       inkscape:connector-curvature="0"
       sodipodi:nodetypes="ccccccc" />
    <path
       style="fill:#c0c0c0;fill-opacity:1;stroke:#000000;stroke-width:0.5291667;stroke-linecap:round;stroke-linejoin:round;stroke-miterlimit:4;stroke-dasharray:none;stroke-opacity:1"
       d="m 14.022912,286.68121 -10e-7,-1.5875 0.793749,-0.79375 1.058339,1.05832 -1e-6,1.05835 -1.058336,1.05833 z"
       id="path1873-1-7"
       inkscape:connector-curvature="0"
       sodipodi:nodetypes="ccccccc" />
    <path
       style="fill:#ffffff;fill-opacity:1;stroke:#000000;stroke-width:0.5291667;stroke-linecap:round;stroke-linejoin:round;stroke-miterlimit:4;stroke-dasharray:none;stroke-opacity:1"
       d="m 10.054164,291.44374 -1.0583352,1.05833 1.2e-6,2.11667 1.058336,-1.05833 1.058331,1.05833 1.058335,-1.05833 1.058332,1.05833 1.058336,-1.05833 1.058331,1.05833 -1e-6,-2.11667 -1.058332,-1.05833 H 12.17083 Z"
       id="path1769-8"
       inkscape:connector-curvature="0"
       sodipodi:nodetypes="ccccccccccccc" />
    <path
       style="fill:#ffffff;fill-opacity:1;stroke:#000000;stroke-width:0.5291667;stroke-linecap:round;stroke-linejoin:round;stroke-miterlimit:4;stroke-dasharray:none;stroke-opacity:1"
       d="m 10.054163,289.85624 -1.0583287,1.05832 -5.5e-6,1.58751 1.0583352,-1.05833 1.058331,1.05833 1.058335,-1.05833 1.058332,1.05833 1.058336,-1.05833 1.058332,1.05833 -10e-7,-1.5875 -1.058333,-1.05833 h -2.116667 z"
       id="path1769"
       inkscape:connector-curvature="0" />
    <path
       style="fill:#ffffff;fill-opacity:1;stroke:#000000;stroke-width:0.5291667;stroke-linecap:round;stroke-linejoin:round;stroke-miterlimit:4;stroke-dasharray:none;stroke-opacity:1"
       d="m 10.318746,286.41666 -1.3229146,1.32291 2.9e-6,3.17499 1.0583287,-1.05832 1.058338,1.05832 1.058328,-1.05832 1.058332,1.05833 1.058335,-1.05833 1.058333,1.05833 3e-6,-3.175 -1.32292,-1.32291 -1.058334,1.05833 -0.793745,-0.79376 -0.793755,0.79376 z"
       id="path1753"
       inkscape:connector-curvature="0"
       sodipodi:nodetypes="ccccccccccccccc" />
    <path
       style="fill:#4d4d4d;fill-opacity:1;stroke:none;stroke-width:0.5291667;stroke-linecap:round;stroke-linejoin:round;stroke-miterlimit:4;stroke-dasharray:none;stroke-opacity:1"
       d="m 13.229162,289.06248 0.793751,-1.05833 0.793747,1.05833 z"
       id="path1822"
       inkscape:connector-curvature="0"
       sodipodi:nodetypes="cccc" />
    <path
       style="fill:#4d4d4d;fill-opacity:1;stroke:none;stroke-width:0.5291667;stroke-linecap:round;stroke-linejoin:round;stroke-miterlimit:4;stroke-dasharray:none;stroke-opacity:1"
       d="m 9.5249969,289.06249 0.7937511,-1.05833 0.793747,1.05833 z"
       id="path1822-9"
       inkscape:connector-curvature="0"
       sodipodi:nodetypes="cccc" />
    <path
       style="fill:#4d4d4d;fill-opacity:1;stroke:none;stroke-width:0.5291667;stroke-linecap:round;stroke-linejoin:round;stroke-miterlimit:4;stroke-dasharray:none;stroke-opacity:1"
       d="m 11.377079,289.06248 0.793751,-1.05833 0.793747,1.05833 z"
       id="path1822-5"
       inkscape:connector-curvature="0"
       sodipodi:nodetypes="cccc" />
    <path
       style="fill:#c0c0c0;fill-opacity:1;stroke:#000000;stroke-width:0.5291667;stroke-linecap:round;stroke-linejoin:round;stroke-miterlimit:4;stroke-dasharray:none;stroke-opacity:1"
       d="m 10.318747,284.03541 v -2.11668 l 1.058336,-1.05835 0.793749,0.79377 -4e-6,2.64583 -0.793744,0.79375 z"
       id="path1873-1-8"
       inkscape:connector-curvature="0"
       sodipodi:nodetypes="ccccccc" />
    <path
       style="fill:#c0c0c0;fill-opacity:1;stroke:#000000;stroke-width:0.5291667;stroke-linecap:round;stroke-linejoin:round;stroke-miterlimit:4;stroke-dasharray:none;stroke-opacity:1"
       d="m 10.318747,286.41665 10e-7,-1.85208 1.058329,-1.05834 0.793751,0.79375 5e-6,2.38124 -0.793755,0.79376 z"
       id="path1873-6"
       inkscape:connector-curvature="0"
       sodipodi:nodetypes="ccccccc" />
    <path
       style="fill:#c0c0c0;fill-opacity:1;stroke:#000000;stroke-width:0.5291667;stroke-linecap:round;stroke-linejoin:round;stroke-miterlimit:4;stroke-dasharray:none;stroke-opacity:1"
       d="m 10.054168,285.09372 -1e-6,-2.38123 -0.7937468,-0.79377 -1.058338,1.05835 v 2.11666 l 1.0583323,1.05834 z"
       id="path1873-1-2"
       inkscape:connector-curvature="0"
       sodipodi:nodetypes="ccccccc" />
    <path
       style="fill:#c0c0c0;fill-opacity:1;stroke:#000000;stroke-width:0.5291667;stroke-linecap:round;stroke-linejoin:round;stroke-miterlimit:4;stroke-dasharray:none;stroke-opacity:1"
       d="m 10.054167,286.68123 -10e-7,-2.11666 -0.7937522,-0.52917 -1.0583309,1.05834 -3.6e-6,1.32292 1.0583395,1.05832 z"
       id="path1873-7"
       inkscape:connector-curvature="0"
       sodipodi:nodetypes="ccccccc" />
    <path
       style="fill:#c0c0c0;fill-opacity:1;stroke:#000000;stroke-width:0.5291667;stroke-linecap:round;stroke-linejoin:round;stroke-miterlimit:4;stroke-dasharray:none;stroke-opacity:1"
       d="m 7.440432,289.35918 -0.5612681,-0.56127 -5e-6,-1.49671 h 1.4967167 l 0.5612681,0.56126 -5.7e-6,1.49672 z"
       id="path1873-1-7-4"
       inkscape:connector-curvature="0"
       sodipodi:nodetypes="ccccccc" />
    <path
       style="fill:#c0c0c0;fill-opacity:1;stroke:#000000;stroke-width:0.5291667;stroke-linecap:round;stroke-linejoin:round;stroke-miterlimit:4;stroke-dasharray:none;stroke-opacity:1"
       d="m 14.022911,284.03541 10e-7,-2.11668 -1.058329,-1.05834 -0.793751,0.79376 -4e-6,2.64583 0.793754,0.79375 z"
       id="path1873-1-8-4"
       inkscape:connector-curvature="0"
       sodipodi:nodetypes="ccccccc" />
    <path
       style="fill:#c0c0c0;fill-opacity:1;stroke:#000000;stroke-width:0.5291667;stroke-linecap:round;stroke-linejoin:round;stroke-miterlimit:4;stroke-dasharray:none;stroke-opacity:1"
       d="m 14.022911,286.41665 2e-6,-1.85208 -1.058329,-1.05834 -0.793756,0.79375 5e-6,2.38124 0.793751,0.79375 z"
       id="path1873-6-0"
       inkscape:connector-curvature="0"
       sodipodi:nodetypes="ccccccc" />
    <path
       style="opacity:1;fill:#858585;fill-opacity:1;stroke:none;stroke-width:0.5291667;stroke-linecap:round;stroke-linejoin:miter;stroke-miterlimit:4;stroke-dasharray:none;stroke-dashoffset:0;stroke-opacity:1;paint-order:normal"
       d="m 10.583329,295.41249 a 0.52916664,0.52916348 0 0 1 -0.529166,0.52917 0.52916664,0.52916348 0 0 1 -0.529167,-0.52917 0.52916664,0.52916348 0 0 1 0.529167,-0.52916 0.52916664,0.52916348 0 0 1 0.529166,0.52916 z"
       id="path837"
       inkscape:connector-curvature="0" />
    <path
       style="opacity:1;fill:#858585;fill-opacity:1;stroke:none;stroke-width:0.5291667;stroke-linecap:round;stroke-linejoin:miter;stroke-miterlimit:4;stroke-dasharray:none;stroke-dashoffset:0;stroke-opacity:1;paint-order:normal"
       d="m 12.699995,295.41248 a 0.52916664,0.52916348 0 0 1 -0.529166,0.52917 0.52916664,0.52916348 0 0 1 -0.529167,-0.52917 0.52916664,0.52916348 0 0 1 0.529167,-0.52916 0.52916664,0.52916348 0 0 1 0.529166,0.52916 z"
       id="path837-3"
       inkscape:connector-curvature="0" />
    <path
       style="opacity:1;fill:#858585;fill-opacity:1;stroke:none;stroke-width:0.5291667;stroke-linecap:round;stroke-linejoin:miter;stroke-miterlimit:4;stroke-dasharray:none;stroke-dashoffset:0;stroke-opacity:1;paint-order:normal"
       d="m 14.816662,295.41248 a 0.52916664,0.52916348 0 0 1 -0.529167,0.52917 0.52916664,0.52916348 0 0 1 -0.529166,-0.52917 0.52916664,0.52916348 0 0 1 0.529166,-0.52916 0.52916664,0.52916348 0 0 1 0.529167,0.52916 z"
       id="path837-3-6"
       inkscape:connector-curvature="0" />
    <path
       style="fill:#ffffff;fill-opacity:1;stroke:#000000;stroke-width:0.5291667;stroke-linecap:butt;stroke-linejoin:round;stroke-miterlimit:4;stroke-dasharray:none;stroke-opacity:1"
       d="m 1.3229136,296.47082 v -1.05834 l 1.5875,-0.52916 1.8520834,-1.32292 v 1.05833 h 2.38125 l 10e-8,1.85209 z"
       id="path1038"
       inkscape:connector-curvature="0"
       sodipodi:nodetypes="cccccccc" />
    <path
       style="fill:#ffffff;fill-opacity:1;stroke:#000000;stroke-width:0.5291667;stroke-linecap:round;stroke-linejoin:round;stroke-miterlimit:4;stroke-dasharray:none;stroke-opacity:1"
       d="m 4.762497,294.61873 v -1.85208 l -1.5875001,1.05833 0.5291667,-1.85208 2.38125,-1.05833 v 1.5875 H 7.937497 v 1.32291 h -0.79375 l 10e-8,0.79375 z"
       id="path1040"
       inkscape:connector-curvature="0"
       sodipodi:nodetypes="ccccccccccc" />
    <path
       style="fill:#4d4d4d;fill-opacity:1;stroke:none;stroke-width:0.26458335px;stroke-linecap:butt;stroke-linejoin:miter;stroke-opacity:1"
       d="M 4.2333333,295.94165 H 5.2916667 L 4.7625,295.1479 Z"
       id="path1044"
       inkscape:connector-curvature="0" />
    <path
       style="fill:#4d4d4d;fill-opacity:1;stroke:none;stroke-width:0.26458335px;stroke-linecap:butt;stroke-linejoin:miter;stroke-opacity:1"
       d="M 2.9104166,295.94165 H 3.96875 L 3.4395833,295.1479 Z"
       id="path1044-1"
       inkscape:connector-curvature="0" />
    <circle
       style="opacity:1;fill:#858585;fill-opacity:1;stroke:none;stroke-width:0.5291667;stroke-linecap:round;stroke-linejoin:round;stroke-miterlimit:4;stroke-dasharray:none;stroke-dashoffset:0;stroke-opacity:1;paint-order:normal"
       id="path1065"
       cx="6.0854135"
       cy="293.56039"
       r="0.5291667" />
    <path
       style="fill:#4d4d4d;fill-opacity:1;stroke:none;stroke-width:0.26458335px;stroke-linecap:butt;stroke-linejoin:miter;stroke-opacity:1"
       d="M 5.55625,295.94165 H 6.6145834 L 6.0854167,295.1479 Z"
       id="path1044-5"
       inkscape:connector-curvature="0" />
    <path
       style="display:inline;opacity:1;vector-effect:none;fill:#ffffff;fill-opacity:1;fill-rule:evenodd;stroke:#000000;stroke-width:0.5291667;stroke-linecap:butt;stroke-linejoin:round;stroke-miterlimit:4;stroke-dasharray:none;stroke-dashoffset:0;stroke-opacity:1"
       d="m 2.3812497,286.94581 -0.529167,1.05833 -1.058333,0.52917 1.058333,0.52917 0.529167,1.05833 0.529167,-1.05833 1.058333,-0.52917 -1.058333,-0.52917 z"
       id="path3959-3"
       inkscape:connector-curvature="0" />
    <path
       style="display:inline;opacity:1;vector-effect:none;fill:#ffffff;fill-opacity:1;fill-rule:evenodd;stroke:#000000;stroke-width:0.5291667;stroke-linecap:butt;stroke-linejoin:round;stroke-miterlimit:4;stroke-dasharray:none;stroke-dashoffset:0;stroke-opacity:1"
       d="m 4.4979164,281.65415 -0.5291669,1.05833 -1.0583331,0.52917 1.0583331,0.52917 0.5291669,1.05833 0.529167,-1.05833 1.058333,-0.52917 -1.058333,-0.52917 z"
       id="path3959-3-9"
       inkscape:connector-curvature="0" />
  </g>
</svg>
