<?xml version="1.0" encoding="UTF-8" standalone="no"?>
<svg
   xmlns:dc="http://purl.org/dc/elements/1.1/"
   xmlns:cc="http://creativecommons.org/ns#"
   xmlns:rdf="http://www.w3.org/1999/02/22-rdf-syntax-ns#"
   xmlns:svg="http://www.w3.org/2000/svg"
   xmlns="http://www.w3.org/2000/svg"
   xmlns:sodipodi="http://sodipodi.sourceforge.net/DTD/sodipodi-0.dtd"
   xmlns:inkscape="http://www.inkscape.org/namespaces/inkscape"
   width="64"
   height="64"
   viewBox="0 0 16.933333 16.933334"
   version="1.1"
   id="svg8"
   inkscape:version="1.0.2-2 (e86c870879, 2021-01-15)"
   sodipodi:docname="Whip_Spear_Icon_Yellow.svg">
  <defs
     id="defs2" />
  <sodipodi:namedview
     id="base"
     pagecolor="#ffffff"
     bordercolor="#666666"
     borderopacity="1.0"
     inkscape:pageopacity="0.0"
     inkscape:pageshadow="2"
     inkscape:zoom="5.4129033"
     inkscape:cx="83.502711"
     inkscape:cy="51.636216"
     inkscape:document-units="px"
     inkscape:current-layer="layer1"
     showgrid="false"
     units="px"
     inkscape:snap-smooth-nodes="true"
     inkscape:window-width="1920"
     inkscape:window-height="1001"
     inkscape:window-x="-9"
     inkscape:window-y="-9"
     inkscape:window-maximized="1"
     inkscape:document-rotation="0">
    <inkscape:grid
       type="xygrid"
       id="grid815" />
  </sodipodi:namedview>
  <metadata
     id="metadata5">
    <rdf:RDF>
      <cc:Work
         rdf:about="">
        <dc:format>image/svg+xml</dc:format>
        <dc:type
           rdf:resource="http://purl.org/dc/dcmitype/StillImage" />
        <dc:title />
      </cc:Work>
    </rdf:RDF>
  </metadata>
  <g
     inkscape:label="Layer 1"
     inkscape:groupmode="layer"
     id="layer1"
     transform="translate(0,-280.06665)">
    <path
       style="fill:#d0d0d0;fill-opacity:1;stroke:none;stroke-width:0.26458335px;stroke-linecap:butt;stroke-linejoin:miter;stroke-opacity:1"
       d="m 13.072755,292.89894 -2.910417,3.175 -1.3229167,-0.52917 -0.2645834,-0.52916 2.3812501,-2.38125 0.264584,0.26458 z"
       id="path1055"
       inkscape:connector-curvature="0" />
    <path
       style="fill:#ffffff;fill-opacity:1;stroke:none;stroke-width:0.26458335px;stroke-linecap:butt;stroke-linejoin:miter;stroke-opacity:1"
       d="m 11.220672,292.89894 -2.3812507,2.64583 -0.5291667,-1.32291 2.1166674,-2.11667 z"
       id="path1045"
       inkscape:connector-curvature="0" />
    <path
       style="fill:#d0d0d0;fill-opacity:1;stroke:none;stroke-width:0.26458335px;stroke-linecap:butt;stroke-linejoin:miter;stroke-opacity:1"
       d="m 14.395672,287.60727 -1.5875,0.26459 -1.058334,0.52916 -1.322916,-1.32291 -2.1166674,-1.32292 1.0583333,-1.85208 0.2645834,-1.32292 0.7937507,0.26458 3.96875,3.70417 z"
       id="path1039"
       inkscape:connector-curvature="0" />
    <path
       style="fill:#ffffff;fill-opacity:1;stroke:none;stroke-width:0.26458335px;stroke-linecap:butt;stroke-linejoin:miter;stroke-opacity:1"
       d="m 14.131088,287.60727 -1.058333,-1.85208 h -0.79375 l -1.058334,-1.05833 v -0.79375 l -1.8520831,-1.05834 -0.5291666,-1.5875 1.5875007,0.26459 2.645833,1.85208 2.116667,2.38125 0.79375,2.38125 h -0.264584 l -1.058333,-0.52917 z"
       id="path1035"
       inkscape:connector-curvature="0"
       sodipodi:nodetypes="cccccccccccccc" />
    <path
       style="fill:none;stroke:#000000;stroke-width:0.5291667;stroke-linecap:round;stroke-linejoin:round;stroke-miterlimit:4;stroke-dasharray:none;stroke-opacity:1"
       d="m 8.6227061,281.07915 c 2.0205559,2.02055 -0.577035,4.94062 -0.577035,4.94062 l 3.9446269,2.46808 c 0,0 2.020558,-2.02055 4.041114,0 0,0 -0.134702,-2.28996 -2.694074,-4.84933 -2.559371,-2.55938 -4.7146319,-2.55937 -4.7146319,-2.55937 z"
       id="path817"
       inkscape:connector-curvature="0"
       sodipodi:nodetypes="cccccc" />
    <path
       style="fill:#d0d0d0;fill-opacity:1;stroke:none;stroke-width:0.26458335px;stroke-linecap:butt;stroke-linejoin:miter;stroke-opacity:1"
       d="m 7.2519212,285.22602 1.3229167,3.70417 2.6458341,2.64583 1.058333,-0.26458 0.529167,-1.05833 -3.7041674,-3.96875 z"
       id="path1043"
       inkscape:connector-curvature="0" />
    <path
       style="fill:#ffffff;fill-opacity:1;stroke:#000000;stroke-width:0.5291667;stroke-linecap:round;stroke-linejoin:round;stroke-miterlimit:4;stroke-dasharray:none;stroke-opacity:1"
       d="m 4.6060878,282.84477 1.8520833,-1.85208 h 1.3229167 l 1e-7,1.32292 -2.3812501,1.85208 -0.2645833,-1.05833 z"
       id="path1037"
       inkscape:connector-curvature="0"
       sodipodi:nodetypes="ccccccc" />
    <path
       style="fill:#858585;fill-opacity:1;stroke:#000000;stroke-width:0.5291667;stroke-linecap:round;stroke-linejoin:round;stroke-miterlimit:4;stroke-dasharray:none;stroke-opacity:1"
       d="m 3.5477545,286.28436 -0.7937501,0.79375 -1.3229167,0.52916 -0.2645833,0.79375 0.5291667,-3.175 1.0583333,0.26459 z"
       id="path992"
       inkscape:connector-curvature="0"
       sodipodi:nodetypes="ccccccc" />
    <path
       style="fill:#858585;fill-opacity:1;stroke:#000000;stroke-width:0.5291667;stroke-linecap:round;stroke-linejoin:round;stroke-miterlimit:4;stroke-dasharray:none;stroke-opacity:1"
       d="m 8.8394213,293.69269 -0.7937501,-0.79375 -0.79375,0.79375 -1e-7,0.79375 1.3229168,0.52917 -0.2645833,-0.79375 z"
       id="path988"
       inkscape:connector-curvature="0"
       sodipodi:nodetypes="ccccccc" />
    <path
       style="fill:#858585;fill-opacity:1;stroke:#000000;stroke-width:0.5291667;stroke-linecap:round;stroke-linejoin:round;stroke-miterlimit:4;stroke-dasharray:none;stroke-opacity:1"
       d="m 12.543588,291.04686 v 1.85208 h -1.322916 l -0.529167,-0.52917 0.529167,-0.79375 z"
       id="path986"
       inkscape:connector-curvature="0" />
    <path
       style="fill:#ffffff;fill-opacity:1;stroke:none;stroke-width:0.26458335px;stroke-linecap:butt;stroke-linejoin:miter;stroke-opacity:1"
       d="m 12.543588,291.04686 -5.2916668,-5.82084 3.1750008,1.85209 2.645833,2.64583 z"
       id="path1041"
       inkscape:connector-curvature="0" />
    <path
       style="fill:#858585;fill-opacity:1;stroke:#000000;stroke-width:0.5291667;stroke-linecap:round;stroke-linejoin:round;stroke-miterlimit:4;stroke-dasharray:none;stroke-opacity:1"
       d="m 5.6644212,290.78227 -0.79375,-0.79375 -0.7937501,0.26459 -0.2645833,0.79375 0.79375,0.79375 0.2645834,-0.79375 z"
       id="path990"
       inkscape:connector-curvature="0" />
    <path
       style="fill:none;stroke:#000000;stroke-width:0.5291667;stroke-linecap:round;stroke-linejoin:round;stroke-miterlimit:4;stroke-dasharray:none;stroke-opacity:1"
       d="m 7.2519212,285.22602 3.1750008,1.85209 2.645833,2.64583 -0.529167,1.32292 -1.322917,0.52916 -2.6458332,-2.64583 z"
       id="path976"
       inkscape:connector-curvature="0"
       sodipodi:nodetypes="ccccccc" />
    <path
       style="fill:#d0d0d0;fill-opacity:1;stroke:none;stroke-width:0.26458335px;stroke-linecap:butt;stroke-linejoin:miter;stroke-opacity:1"
       d="m 7.2519212,293.69269 -0.2645833,1.32292 -2.6458334,-2.64584 0.5291667,-1.32291 1.0583333,0.26458 z"
       id="path1057"
       inkscape:connector-curvature="0" />
    <path
       style="fill:#ffffff;fill-opacity:1;stroke:none;stroke-width:0.26458335px;stroke-linecap:butt;stroke-linejoin:miter;stroke-opacity:1"
       d="m 7.2519212,293.69269 -2.3812501,-2.64583 1.3229168,-0.52917 2.1166667,2.11667 z"
       id="path1047"
       inkscape:connector-curvature="0"
       sodipodi:nodetypes="ccccc" />
    <path
       style="fill:none;stroke:#000000;stroke-width:0.5291667;stroke-linecap:round;stroke-linejoin:round;stroke-miterlimit:4;stroke-dasharray:none;stroke-opacity:1"
       d="m 10.426922,292.10519 0.79375,0.79375 h 1.852083 l -2.910416,3.175 -1.3229177,-0.52916 -0.5291667,-1.32292 z"
       id="path978"
       inkscape:connector-curvature="0" />
    <path
       style="fill:none;stroke:#000000;stroke-width:0.5291667;stroke-linecap:round;stroke-linejoin:round;stroke-miterlimit:4;stroke-dasharray:none;stroke-opacity:1"
       d="m 8.3102544,292.63436 -1.0583334,1.05833 -0.2645833,1.32292 -2.6458334,-2.64583 0.5291666,-1.32292 1.3229167,-0.52917 z"
       id="path980"
       inkscape:connector-curvature="0"
       sodipodi:nodetypes="ccccccc" />
    <path
       style="fill:#d0d0d0;fill-opacity:1;stroke:none;stroke-width:0.26458335px;stroke-linecap:butt;stroke-linejoin:miter;stroke-opacity:1"
       d="m 4.0769211,290.25311 -0.5291666,1.32291 -2.64583337,-2.64583 0.52916657,-1.32292 1.8520834,0.79375 z"
       id="path1059"
       inkscape:connector-curvature="0" />
    <path
       style="fill:#ffffff;fill-opacity:1;stroke:none;stroke-width:0.26458335px;stroke-linecap:butt;stroke-linejoin:miter;stroke-opacity:1"
       d="m 4.0769211,290.25311 -2.6458334,-2.64584 1.3229167,-0.52916 2.6458334,2.64583 z"
       id="path1049"
       inkscape:connector-curvature="0" />
    <path
       style="fill:none;stroke:#000000;stroke-width:0.5291667;stroke-linecap:round;stroke-linejoin:round;stroke-miterlimit:4;stroke-dasharray:none;stroke-opacity:1"
       d="m 5.3998378,289.72394 -1.3229167,0.52917 -0.5291667,1.32291 -2.64583337,-2.64583 0.52916667,-1.32292 1.3229167,-0.52916 z"
       id="path982"
       inkscape:connector-curvature="0"
       sodipodi:nodetypes="ccccccc" />
    <path
       style="fill:#ffffff;fill-opacity:1;stroke:none;stroke-width:0.26458335px;stroke-linecap:butt;stroke-linejoin:miter;stroke-opacity:1"
       d="m 2.7540044,285.49061 -1.3229167,-0.26459 2.3812501,-2.64583 1.3229167,0.52917 -0.2645833,1.05833 z"
       id="path1061"
       inkscape:connector-curvature="0" />
    <path
       style="fill:#d0d0d0;fill-opacity:1;stroke:none;stroke-width:0.26458335px;stroke-linecap:butt;stroke-linejoin:miter;stroke-opacity:1"
       d="m 3.8123378,286.54894 -1.0583334,-1.05833 2.3812501,-2.38125 0.5291667,1.5875 z"
       id="path1051"
       inkscape:connector-curvature="0" />
    <path
       style="fill:none;stroke:#000000;stroke-width:0.5291667;stroke-linecap:round;stroke-linejoin:round;stroke-miterlimit:4;stroke-dasharray:none;stroke-opacity:1"
       d="m 3.8123377,286.54894 -1.0583333,-1.05833 -1.5875,-0.26459 2.6458334,-2.64583 1.3229167,0.52917 0.5291666,1.5875 z"
       id="path984"
       inkscape:connector-curvature="0"
       sodipodi:nodetypes="ccccccc" />
    <circle
       style="display:inline;opacity:1;fill:#ffffff;fill-opacity:1;fill-rule:nonzero;stroke:#858585;stroke-width:0.5291667;stroke-linecap:round;stroke-linejoin:round;stroke-miterlimit:4;stroke-dasharray:none;stroke-dashoffset:0;stroke-opacity:1;paint-order:normal"
       id="path1812-44"
       cx="10.162337"
       cy="284.96146"
       r="0.52916712" />
    <circle
       style="display:inline;opacity:1;fill:#ffffff;fill-opacity:1;fill-rule:nonzero;stroke:#858585;stroke-width:0.5291667;stroke-linecap:round;stroke-linejoin:round;stroke-miterlimit:4;stroke-dasharray:none;stroke-dashoffset:0;stroke-opacity:1;paint-order:normal"
       id="path1812-44-6"
       cx="12.279004"
       cy="286.81354"
       r="0.52916712" />
  </g>
</svg>
