<?xml version="1.0" encoding="UTF-8" standalone="no"?>
<!-- Created with Inkscape (http://www.inkscape.org/) -->

<svg
   xmlns:dc="http://purl.org/dc/elements/1.1/"
   xmlns:cc="http://creativecommons.org/ns#"
   xmlns:rdf="http://www.w3.org/1999/02/22-rdf-syntax-ns#"
   xmlns:svg="http://www.w3.org/2000/svg"
   xmlns="http://www.w3.org/2000/svg"
   xmlns:sodipodi="http://sodipodi.sourceforge.net/DTD/sodipodi-0.dtd"
   xmlns:inkscape="http://www.inkscape.org/namespaces/inkscape"
   width="64"
   height="64"
   viewBox="0 0 16.933333 16.933334"
   version="1.1"
   id="svg1401"
   inkscape:version="0.92.5 (2060ec1f9f, 2020-04-08)"
   sodipodi:docname="StatusEffect-Divine Protection MHRise.svg">
  <defs
     id="defs1395">
    <pattern
       y="0"
       x="0"
       height="6"
       width="6"
       patternUnits="userSpaceOnUse"
       id="EMFhbasepattern" />
    <pattern
       y="0"
       x="0"
       height="6"
       width="6"
       patternUnits="userSpaceOnUse"
       id="EMFhbasepattern-9" />
    <pattern
       y="0"
       x="0"
       height="6"
       width="6"
       patternUnits="userSpaceOnUse"
       id="EMFhbasepattern-4" />
    <pattern
       y="0"
       x="0"
       height="6"
       width="6"
       patternUnits="userSpaceOnUse"
       id="EMFhbasepattern-92" />
    <pattern
       y="0"
       x="0"
       height="6"
       width="6"
       patternUnits="userSpaceOnUse"
       id="EMFhbasepattern-5" />
    <pattern
       y="0"
       x="0"
       height="6"
       width="6"
       patternUnits="userSpaceOnUse"
       id="EMFhbasepattern-2" />
    <filter
       inkscape:collect="always"
       style="color-interpolation-filters:sRGB"
       id="filter4181"
       x="-0.060937501"
       width="1.121875"
       y="-0.059090909"
       height="1.1181818">
      <feGaussianBlur
         inkscape:collect="always"
         stdDeviation="0.42994791"
         id="feGaussianBlur4183" />
    </filter>
  </defs>
  <sodipodi:namedview
     id="base"
     pagecolor="#ffffff"
     bordercolor="#666666"
     borderopacity="1.0"
     inkscape:pageopacity="0.0"
     inkscape:pageshadow="2"
     inkscape:zoom="3.959798"
     inkscape:cx="17.834315"
     inkscape:cy="68.750483"
     inkscape:document-units="px"
     inkscape:current-layer="layer1"
     showgrid="false"
     units="px"
     inkscape:window-width="1920"
     inkscape:window-height="1017"
     inkscape:window-x="1912"
     inkscape:window-y="-8"
     inkscape:window-maximized="1" />
  <metadata
     id="metadata1398">
    <rdf:RDF>
      <cc:Work
         rdf:about="">
        <dc:format>image/svg+xml</dc:format>
        <dc:type
           rdf:resource="http://purl.org/dc/dcmitype/StillImage" />
        <dc:title></dc:title>
      </cc:Work>
    </rdf:RDF>
  </metadata>
  <g
     inkscape:label="Layer 1"
     inkscape:groupmode="layer"
     id="layer1"
     transform="translate(0,-280.06665)">
    <path
       style="display:inline;fill:#000000;fill-opacity:1;stroke:#000000;stroke-width:0.31366718;stroke-linecap:butt;stroke-linejoin:miter;stroke-miterlimit:20;stroke-dasharray:none;stroke-opacity:1;filter:url(#filter4181)"
       d="m 8.4666661,279.80207 -1.058333,6.35 L 2.38125,282.44791 6.0854171,287.47499 -1.284895e-7,288.53332 6.0854171,289.59166 2.38125,294.61874 l 5.0270831,-3.70417 1.058333,6.35 1.0583337,-6.35 5.0270832,3.70417 -3.704167,-5.02708 6.085417,-1.05834 -6.085417,-1.05833 3.704167,-5.02708 -5.0270832,3.70416 z"
       id="path4120-7"
       inkscape:connector-curvature="0"
       transform="matrix(0.84351613,0,0,0.84351613,1.3248968,45.150812)" />
    <path
       style="display:inline;fill:#00d600;fill-opacity:1;stroke:none;stroke-width:0.26458332px;stroke-linecap:butt;stroke-linejoin:miter;stroke-opacity:1"
       d="m 8.4666661,281.16838 -0.8927209,5.35633 -4.2404258,-3.12453 3.124524,4.24043 -5.1331468,0.89272 5.1331468,0.89273 -3.124524,4.24042 4.2404258,-3.12453 0.8927209,5.35633 0.8927217,-5.35633 4.2404262,3.12453 -3.124525,-4.24042 5.133147,-0.89273 -5.133147,-0.89272 3.124525,-4.24043 -4.2404262,3.12453 z"
       id="path4120"
       inkscape:connector-curvature="0" />
    <path
       style="display:inline;fill:#ff5903;fill-opacity:1;stroke:none;stroke-width:0.26458332px;stroke-linecap:butt;stroke-linejoin:miter;stroke-opacity:1"
       d="m 11.814372,288.75652 1.562259,-0.22319 -1.562259,-0.22318 z"
       id="path3945-2-76"
       inkscape:connector-curvature="0" />
    <path
       style="display:inline;fill:#d0f100;fill-opacity:1;stroke:none;stroke-width:0.26458332px;stroke-linecap:butt;stroke-linejoin:miter;stroke-opacity:1"
       d="m 10.47529,288.97969 -1.7854455,0.22318 v -1.33908 l 1.7854455,0.22318 1.339082,0.44636 z"
       id="path3943-8-27"
       inkscape:connector-curvature="0"
       sodipodi:nodetypes="cccccc" />
    <path
       style="display:inline;fill:#ff2e01;fill-opacity:1;stroke:none;stroke-width:0.26458332px;stroke-linecap:butt;stroke-linejoin:miter;stroke-opacity:1"
       d="m 12.260727,288.53333 -0.446355,0.22319 -1.339082,0.22317 0.669541,-0.44636 -0.669541,-0.44636 1.339082,0.22318 z"
       id="path3939-7-4"
       inkscape:connector-curvature="0"
       sodipodi:nodetypes="ccccccc" />
    <path
       style="display:inline;fill:#ff5903;fill-opacity:1;stroke:none;stroke-width:0.26458332px;stroke-linecap:butt;stroke-linejoin:miter;stroke-opacity:1"
       d="m 5.1189539,288.75652 -1.5622595,-0.22319 1.5622595,-0.22318 z"
       id="path3945-9"
       inkscape:connector-curvature="0" />
    <path
       style="display:inline;fill:#d0f100;fill-opacity:1;stroke:none;stroke-width:0.26458332px;stroke-linecap:butt;stroke-linejoin:miter;stroke-opacity:1"
       d="m 6.4580358,288.97969 1.7854452,0.22318 v -1.33908 l -1.7854452,0.22318 -1.3390819,0.44636 z"
       id="path3943-6"
       inkscape:connector-curvature="0"
       sodipodi:nodetypes="cccccc" />
    <path
       style="display:inline;fill:#ff2e01;fill-opacity:1;stroke:none;stroke-width:0.26458332px;stroke-linecap:butt;stroke-linejoin:miter;stroke-opacity:1"
       d="m 4.6725988,288.53333 0.4463551,0.22319 1.3390819,0.22317 -0.669541,-0.44636 0.669541,-0.44636 -1.3390819,0.22318 z"
       id="path3939-5"
       inkscape:connector-curvature="0"
       sodipodi:nodetypes="ccccccc" />
    <path
       style="display:inline;fill:#ff5903;fill-opacity:1;stroke:none;stroke-width:0.26458332px;stroke-linecap:butt;stroke-linejoin:miter;stroke-opacity:1"
       d="m 10.676042,291.05834 1.262497,0.94687 -0.946872,-1.2625 z"
       id="path3945-2-7"
       inkscape:connector-curvature="0" />
    <path
       style="display:inline;fill:#d0f100;fill-opacity:1;stroke:none;stroke-width:0.26458332px;stroke-linecap:butt;stroke-linejoin:miter;stroke-opacity:1"
       d="m 9.5713558,290.26927 -1.4203123,-1.10469 0.9468737,-0.94687 1.1046878,1.42031 0.63125,1.2625 z"
       id="path3943-8-23"
       inkscape:connector-curvature="0"
       sodipodi:nodetypes="cccccc" />
    <path
       style="display:inline;fill:#ff2e01;fill-opacity:1;stroke:none;stroke-width:0.26458332px;stroke-linecap:butt;stroke-linejoin:miter;stroke-opacity:1"
       d="m 11.149475,291.21614 -0.473433,-0.1578 -1.1046862,-0.78907 0.7890622,0.15781 -0.157813,-0.78906 0.789062,1.10469 z"
       id="path3939-7-09"
       inkscape:connector-curvature="0"
       sodipodi:nodetypes="ccccccc" />
    <path
       style="display:inline;fill:#ff5903;fill-opacity:1;stroke:none;stroke-width:0.26458332px;stroke-linecap:butt;stroke-linejoin:miter;stroke-opacity:1"
       d="m 5.9416664,286.32396 -0.9468715,-1.2625 1.2624967,0.94687 z"
       id="path3945-67"
       inkscape:connector-curvature="0" />
    <path
       style="display:inline;fill:#d0f100;fill-opacity:1;stroke:none;stroke-width:0.26458332px;stroke-linecap:butt;stroke-linejoin:miter;stroke-opacity:1"
       d="m 6.7307284,287.42864 1.1046883,1.42032 0.9468738,-0.94688 -1.4203133,-1.10468 -1.2624982,-0.63125 z"
       id="path3943-5"
       inkscape:connector-curvature="0"
       sodipodi:nodetypes="cccccc" />
    <path
       style="display:inline;fill:#ff2e01;fill-opacity:1;stroke:none;stroke-width:0.26458332px;stroke-linecap:butt;stroke-linejoin:miter;stroke-opacity:1"
       d="m 5.7838587,285.85053 0.1578077,0.47343 0.789062,1.10468 -0.1578126,-0.78905 0.7890614,0.15781 -1.1046856,-0.78907 z"
       id="path3939-4"
       inkscape:connector-curvature="0"
       sodipodi:nodetypes="ccccccc" />
    <path
       style="display:inline;fill:#ff5903;fill-opacity:1;stroke:none;stroke-width:0.26458332px;stroke-linecap:butt;stroke-linejoin:miter;stroke-opacity:1"
       d="m 5.9416664,290.74271 -0.9468715,1.2625 1.2624967,-0.94687 z"
       id="path3945-2-5"
       inkscape:connector-curvature="0" />
    <path
       style="display:inline;fill:#d0f100;fill-opacity:1;stroke:none;stroke-width:0.26458332px;stroke-linecap:butt;stroke-linejoin:miter;stroke-opacity:1"
       d="m 6.7307284,289.63802 1.1046883,-1.42031 0.9468738,0.94687 -1.4203133,1.10469 -1.2624982,0.63125 z"
       id="path3943-8-2"
       inkscape:connector-curvature="0"
       sodipodi:nodetypes="cccccc" />
    <path
       style="display:inline;fill:#ff2e01;fill-opacity:1;stroke:none;stroke-width:0.26458332px;stroke-linecap:butt;stroke-linejoin:miter;stroke-opacity:1"
       d="m 5.7838587,291.21614 0.1578077,-0.47343 0.789062,-1.10469 -0.1578126,0.78906 0.7890614,-0.15781 -1.1046856,0.78907 z"
       id="path3939-7-0"
       inkscape:connector-curvature="0"
       sodipodi:nodetypes="ccccccc" />
    <path
       style="display:inline;fill:#ff5903;fill-opacity:1;stroke:none;stroke-width:0.26458332px;stroke-linecap:butt;stroke-linejoin:miter;stroke-opacity:1"
       d="m 10.676042,286.00833 1.262497,-0.94687 -0.946872,1.2625 z"
       id="path3945-6"
       inkscape:connector-curvature="0" />
    <path
       style="display:inline;fill:#d0f100;fill-opacity:1;stroke:none;stroke-width:0.26458332px;stroke-linecap:butt;stroke-linejoin:miter;stroke-opacity:1"
       d="m 9.5713558,286.7974 -1.4203123,1.10468 0.9468737,0.94688 1.1046878,-1.42032 0.63125,-1.26249 z"
       id="path3943-3"
       inkscape:connector-curvature="0"
       sodipodi:nodetypes="cccccc" />
    <path
       style="display:inline;fill:#ff2e01;fill-opacity:1;stroke:none;stroke-width:0.26458332px;stroke-linecap:butt;stroke-linejoin:miter;stroke-opacity:1"
       d="m 11.149475,285.85053 -0.473433,0.1578 -1.1046862,0.78907 0.7890622,-0.15781 -0.157813,0.78905 0.789062,-1.10468 z"
       id="path3939-2"
       inkscape:connector-curvature="0"
       sodipodi:nodetypes="ccccccc" />
    <path
       style="display:inline;fill:#ff5903;fill-opacity:1;stroke:none;stroke-width:0.26458332px;stroke-linecap:butt;stroke-linejoin:miter;stroke-opacity:1"
       d="m 8.2434861,291.88104 0.223181,1.56226 0.2231798,-1.56226 z"
       id="path3945-2"
       inkscape:connector-curvature="0" />
    <path
       style="display:inline;fill:#d0f100;fill-opacity:1;stroke:none;stroke-width:0.26458332px;stroke-linecap:butt;stroke-linejoin:miter;stroke-opacity:1"
       d="m 8.020306,290.54196 -0.2231799,-1.78544 h 1.3390816 l -0.2231808,1.78544 -0.4463598,1.33908 z"
       id="path3943-8"
       inkscape:connector-curvature="0"
       sodipodi:nodetypes="cccccc" />
    <path
       style="display:inline;fill:#ff2e01;fill-opacity:1;stroke:none;stroke-width:0.26458332px;stroke-linecap:butt;stroke-linejoin:miter;stroke-opacity:1"
       d="m 8.4666671,292.3274 -0.223181,-0.44636 -0.2231801,-1.33908 0.4463611,0.66954 0.4463598,-0.66954 -0.22318,1.33908 z"
       id="path3939-7"
       inkscape:connector-curvature="0"
       sodipodi:nodetypes="ccccccc" />
    <path
       style="display:inline;fill:#ff5903;fill-opacity:1;stroke:none;stroke-width:0.26458332px;stroke-linecap:butt;stroke-linejoin:miter;stroke-opacity:1"
       d="m 8.2434861,285.18563 0.223181,-1.56226 0.2231798,1.56226 z"
       id="path3945"
       inkscape:connector-curvature="0" />
    <path
       style="display:inline;fill:#d0f100;fill-opacity:1;stroke:none;stroke-width:0.26458332px;stroke-linecap:butt;stroke-linejoin:miter;stroke-opacity:1"
       d="m 8.020306,286.52471 -0.2231799,1.78544 h 1.3390816 l -0.2231808,-1.78544 -0.4463598,-1.33908 z"
       id="path3943"
       inkscape:connector-curvature="0"
       sodipodi:nodetypes="cccccc" />
    <path
       style="display:inline;fill:#ff2e01;fill-opacity:1;stroke:none;stroke-width:0.26458332px;stroke-linecap:butt;stroke-linejoin:miter;stroke-opacity:1"
       d="m 8.4666671,284.73926 -0.223181,0.44637 -0.2231801,1.33908 0.4463611,-0.66954 0.4463598,0.66954 -0.22318,-1.33908 z"
       id="path3939"
       inkscape:connector-curvature="0"
       sodipodi:nodetypes="ccccccc" />
    <path
       style="display:inline;fill:#ffffff;stroke:none;stroke-width:0.26458332px;stroke-linecap:butt;stroke-linejoin:miter;stroke-opacity:1"
       d="m 8.4666671,286.97107 -0.223181,0.66954 H 7.5739452 v 0.66954 l -0.669541,0.22318 0.669541,0.22319 v 0.66954 h 0.6695409 l 0.223181,0.66954 0.2231798,-0.66954 h 0.6695409 v -0.66954 l 0.6695412,-0.22319 -0.6695412,-0.22318 v -0.66954 H 8.6898469 Z"
       id="path4030"
       inkscape:connector-curvature="0"
       sodipodi:nodetypes="ccccccccccccccccc" />
  </g>
</svg>
