<?xml version="1.0" encoding="UTF-8" standalone="no"?>
<!-- Created with Inkscape (http://www.inkscape.org/) -->

<svg
   xmlns:dc="http://purl.org/dc/elements/1.1/"
   xmlns:cc="http://creativecommons.org/ns#"
   xmlns:rdf="http://www.w3.org/1999/02/22-rdf-syntax-ns#"
   xmlns:svg="http://www.w3.org/2000/svg"
   xmlns="http://www.w3.org/2000/svg"
   xmlns:sodipodi="http://sodipodi.sourceforge.net/DTD/sodipodi-0.dtd"
   xmlns:inkscape="http://www.inkscape.org/namespaces/inkscape"
   width="64"
   height="64"
   viewBox="0 0 16.933333 16.933334"
   version="1.1"
   id="svg1401"
   inkscape:version="0.92.5 (2060ec1f9f, 2020-04-08)"
   sodipodi:docname="StatusEffect-Evasion Enhanced Up MHRise.svg">
  <defs
     id="defs1395">
    <pattern
       y="0"
       x="0"
       height="6"
       width="6"
       patternUnits="userSpaceOnUse"
       id="EMFhbasepattern" />
    <pattern
       y="0"
       x="0"
       height="6"
       width="6"
       patternUnits="userSpaceOnUse"
       id="EMFhbasepattern-9" />
    <pattern
       y="0"
       x="0"
       height="6"
       width="6"
       patternUnits="userSpaceOnUse"
       id="EMFhbasepattern-4" />
    <pattern
       y="0"
       x="0"
       height="6"
       width="6"
       patternUnits="userSpaceOnUse"
       id="EMFhbasepattern-92" />
    <pattern
       y="0"
       x="0"
       height="6"
       width="6"
       patternUnits="userSpaceOnUse"
       id="EMFhbasepattern-5" />
    <filter
       inkscape:collect="always"
       style="color-interpolation-filters:sRGB"
       id="filter4961-6"
       x="-0.060468342"
       width="1.1209368"
       y="-0.059538856"
       height="1.1190777">
      <feGaussianBlur
         inkscape:collect="always"
         stdDeviation="0.17336425"
         id="feGaussianBlur4963-4" />
    </filter>
    <filter
       inkscape:collect="always"
       style="color-interpolation-filters:sRGB"
       id="filter5185"
       x="-0.062499993"
       width="1.125"
       y="-0.057692315"
       height="1.1153846">
      <feGaussianBlur
         inkscape:collect="always"
         stdDeviation="0.33072913"
         id="feGaussianBlur5187" />
    </filter>
  </defs>
  <sodipodi:namedview
     id="base"
     pagecolor="#ffffff"
     bordercolor="#666666"
     borderopacity="1.0"
     inkscape:pageopacity="0.0"
     inkscape:pageshadow="2"
     inkscape:zoom="3.959798"
     inkscape:cx="73.159619"
     inkscape:cy="4.2006991"
     inkscape:document-units="px"
     inkscape:current-layer="layer1"
     showgrid="false"
     units="px"
     inkscape:window-width="1920"
     inkscape:window-height="1017"
     inkscape:window-x="1912"
     inkscape:window-y="-8"
     inkscape:window-maximized="1" />
  <metadata
     id="metadata1398">
    <rdf:RDF>
      <cc:Work
         rdf:about="">
        <dc:format>image/svg+xml</dc:format>
        <dc:type
           rdf:resource="http://purl.org/dc/dcmitype/StillImage" />
        <dc:title></dc:title>
      </cc:Work>
    </rdf:RDF>
  </metadata>
  <g
     inkscape:label="Layer 1"
     inkscape:groupmode="layer"
     id="layer1"
     transform="translate(0,-280.06665)">
    <path
       style="display:inline;opacity:1;fill:#000000;fill-opacity:1;fill-rule:evenodd;stroke:#000000;stroke-width:0.26458332;stroke-linecap:butt;stroke-linejoin:miter;stroke-miterlimit:4;stroke-dasharray:none;stroke-dashoffset:0;stroke-opacity:0.97979796;paint-order:normal;filter:url(#filter5185)"
       d="m 9.3368088,281.65415 a 2.3812499,2.3812499 0 0 0 -2.38125,2.38125 2.3812499,2.3812499 0 0 0 0.8878,1.85208 H 2.7222187 v 4.23333 h 2.11667 v -2.11666 h 2.6458301 v 5.29166 H 2.1930586 v 2.11667 h 7.9375004 v -3.70417 h 2.11666 v 3.70417 h 2.11667 v -5.82083 h -3.175 v -1.5875 h 3.70417 v -5.29167 h -2.11667 v 3.175 h -1.94407 a 2.3812499,2.3812499 0 0 0 0.88574,-1.85208 2.3812499,2.3812499 0 0 0 -2.3812502,-2.38125 z"
       id="path3375-5"
       inkscape:connector-curvature="0" />
    <path
       style="display:inline;opacity:1;fill:#00d600;fill-opacity:1;fill-rule:evenodd;stroke:none;stroke-width:0.52916664;stroke-linecap:butt;stroke-linejoin:miter;stroke-miterlimit:4;stroke-dasharray:none;stroke-dashoffset:0;stroke-opacity:0.97979796;paint-order:normal"
       d="m 9.336803,281.65415 a 2.38125,2.38125 0 0 0 -2.3812501,2.38125 2.38125,2.38125 0 0 0 0.8878015,1.85208 H 2.7222196 v 4.23333 h 2.1166666 v -2.11666 h 2.6458334 v 5.29166 H 2.1930529 v 2.11667 h 7.9375001 v -3.70417 h 2.116666 v 3.70417 h 2.116667 v -5.82083 h -3.175 v -1.5875 h 3.704167 v -5.29167 h -2.116667 v 3.175 h -1.944068 a 2.38125,2.38125 0 0 0 0.885735,-1.85208 2.38125,2.38125 0 0 0 -2.38125,-2.38125 z"
       id="path3375"
       inkscape:connector-curvature="0" />
    <path
       style="display:inline;fill:#000ccc;fill-opacity:1;stroke:none;stroke-width:0.26458332px;stroke-linecap:butt;stroke-linejoin:miter;stroke-opacity:1"
       d="m 9.336803,282.18331 a 1.8520834,1.8520834 0 0 0 -1.8520834,1.85209 1.8520834,1.8520834 0 0 0 1.0583333,1.6707 v 0.71055 H 3.2513863 v 3.175 h 1.0583333 v -2.11667 h 3.7041667 v 6.35 H 2.7222196 v 1.05833 h 6.8791663 v -3.70416 h 3.1750001 v 3.70416 h 1.058333 v -4.7625 H 10.65972 v -2.64583 h 3.704166 v -4.23333 h -1.058333 v 3.175 h -3.175 v -0.71004 a 1.8520834,1.8520834 0 0 0 1.058333,-1.67121 1.8520834,1.8520834 0 0 0 -1.852083,-1.85209 z"
       id="path3350"
       inkscape:connector-curvature="0" />
    <path
       style="color:#000000;font-style:normal;font-variant:normal;font-weight:normal;font-stretch:normal;font-size:medium;line-height:normal;font-family:sans-serif;font-variant-ligatures:normal;font-variant-position:normal;font-variant-caps:normal;font-variant-numeric:normal;font-variant-alternates:normal;font-feature-settings:normal;text-indent:0;text-align:start;text-decoration:none;text-decoration-line:none;text-decoration-style:solid;text-decoration-color:#000000;letter-spacing:normal;word-spacing:normal;text-transform:none;writing-mode:lr-tb;direction:ltr;text-orientation:mixed;dominant-baseline:auto;baseline-shift:baseline;text-anchor:start;white-space:normal;shape-padding:0;clip-rule:nonzero;display:inline;overflow:visible;visibility:visible;opacity:1;isolation:auto;mix-blend-mode:normal;color-interpolation:sRGB;color-interpolation-filters:linearRGB;solid-color:#000000;solid-opacity:1;vector-effect:none;fill:#000000;fill-opacity:1;fill-rule:nonzero;stroke:#000000;stroke-width:0.26458332;stroke-linecap:butt;stroke-linejoin:miter;stroke-miterlimit:4;stroke-dasharray:none;stroke-dashoffset:0;stroke-opacity:1;filter:url(#filter4961-6);color-rendering:auto;image-rendering:auto;shape-rendering:auto;text-rendering:auto;enable-background:accumulate"
       d="m 5.1020587,287.89568 -3.4394601,3.43946 v 0.90234 h 1.5878901 v 2.64648 h 0.26563 3.4394501 v -2.64648 h 1.58789 v -0.90234 z"
       id="path3021-9-6-0-4"
       inkscape:connector-curvature="0"
       sodipodi:nodetypes="ccccccccccc" />
    <path
       style="display:inline;fill:#088e00;fill-opacity:1;stroke:#000000;stroke-width:0.52916664;stroke-linecap:butt;stroke-linejoin:miter;stroke-miterlimit:4;stroke-dasharray:none;stroke-opacity:1"
       d="m 3.5159674,294.61873 1.01e-5,-2.64583 -1.5875101,-10e-6 v -0.52916 l 3.1750001,-3.175 3.175,3.175 v 0.52916 l -1.58749,10e-6 -10e-6,2.64583 z"
       id="path3021-9-6-5"
       inkscape:connector-curvature="0"
       sodipodi:nodetypes="cccccccccc" />
  </g>
</svg>
