<?xml version="1.0" encoding="UTF-8" standalone="no"?>
<!-- Created with Inkscape (http://www.inkscape.org/) -->

<svg
   xmlns:dc="http://purl.org/dc/elements/1.1/"
   xmlns:cc="http://creativecommons.org/ns#"
   xmlns:rdf="http://www.w3.org/1999/02/22-rdf-syntax-ns#"
   xmlns:svg="http://www.w3.org/2000/svg"
   xmlns="http://www.w3.org/2000/svg"
   xmlns:sodipodi="http://sodipodi.sourceforge.net/DTD/sodipodi-0.dtd"
   xmlns:inkscape="http://www.inkscape.org/namespaces/inkscape"
   width="64"
   height="64"
   viewBox="0 0 16.933333 16.933334"
   version="1.1"
   id="svg1401"
   inkscape:version="0.92.5 (2060ec1f9f, 2020-04-08)"
   sodipodi:docname="StatusEffect-Environment Res MHRise.svg">
  <defs
     id="defs1395">
    <pattern
       y="0"
       x="0"
       height="6"
       width="6"
       patternUnits="userSpaceOnUse"
       id="EMFhbasepattern" />
    <pattern
       y="0"
       x="0"
       height="6"
       width="6"
       patternUnits="userSpaceOnUse"
       id="EMFhbasepattern-9" />
    <pattern
       y="0"
       x="0"
       height="6"
       width="6"
       patternUnits="userSpaceOnUse"
       id="EMFhbasepattern-4" />
    <pattern
       y="0"
       x="0"
       height="6"
       width="6"
       patternUnits="userSpaceOnUse"
       id="EMFhbasepattern-92" />
    <pattern
       y="0"
       x="0"
       height="6"
       width="6"
       patternUnits="userSpaceOnUse"
       id="EMFhbasepattern-5" />
    <pattern
       y="0"
       x="0"
       height="6"
       width="6"
       patternUnits="userSpaceOnUse"
       id="EMFhbasepattern-2" />
    <pattern
       y="0"
       x="0"
       height="6"
       width="6"
       patternUnits="userSpaceOnUse"
       id="EMFhbasepattern-7" />
    <pattern
       y="0"
       x="0"
       height="6"
       width="6"
       patternUnits="userSpaceOnUse"
       id="EMFhbasepattern-0" />
    <filter
       inkscape:collect="always"
       style="color-interpolation-filters:sRGB"
       id="filter3035"
       x="-0.061199997"
       width="1.1224"
       y="-0.058846157"
       height="1.1176924">
      <feGaussianBlur
         inkscape:collect="always"
         stdDeviation="0.33734369"
         id="feGaussianBlur3037" />
    </filter>
  </defs>
  <sodipodi:namedview
     id="base"
     pagecolor="#ffffff"
     bordercolor="#666666"
     borderopacity="1.0"
     inkscape:pageopacity="0.0"
     inkscape:pageshadow="2"
     inkscape:zoom="2.8"
     inkscape:cx="182.92681"
     inkscape:cy="46.128981"
     inkscape:document-units="px"
     inkscape:current-layer="layer1"
     showgrid="false"
     units="px"
     inkscape:window-width="1920"
     inkscape:window-height="1017"
     inkscape:window-x="1912"
     inkscape:window-y="-8"
     inkscape:window-maximized="1" />
  <metadata
     id="metadata1398">
    <rdf:RDF>
      <cc:Work
         rdf:about="">
        <dc:format>image/svg+xml</dc:format>
        <dc:type
           rdf:resource="http://purl.org/dc/dcmitype/StillImage" />
        <dc:title></dc:title>
      </cc:Work>
    </rdf:RDF>
  </metadata>
  <g
     inkscape:label="Layer 1"
     inkscape:groupmode="layer"
     id="layer1"
     transform="translate(0,-280.06665)">
    <path
       inkscape:connector-curvature="0"
       style="display:inline;fill:#000000;fill-opacity:1;stroke:#000000;stroke-width:0.26458332px;stroke-linecap:butt;stroke-linejoin:miter;stroke-opacity:1;filter:url(#filter3035)"
       d="m 6.6145815,281.65415 v 2.38126 h -0.264583 l -2.3812501,1.85208 v 2.38125 l 0.264583,0.26458 -0.529167,0.52917 h -0.529166 l -1.322917,1.32292 v 5.02708 h 6.6145831 6.6145865 v -5.02708 l -1.322914,-1.32292 h -0.529171 l -0.52917,-0.52917 0.26459,-0.26458 v -2.38125 l -2.381255,-1.85208 h -0.264583 v -2.38126 H 8.4666645 Z"
       id="path7061-4" />
    <path
       inkscape:connector-curvature="0"
       style="display:inline;fill:#00d600;fill-opacity:1;stroke:none;stroke-width:0.26458332px;stroke-linecap:butt;stroke-linejoin:miter;stroke-opacity:1"
       d="m 6.6145815,281.65415 v 2.38126 h -0.264583 l -2.3812501,1.85208 v 2.38125 l 0.2645833,0.26458 -0.5291667,0.52917 H 3.1749983 l -1.3229167,1.32292 v 5.02708 h 6.6145839 6.6145825 v -5.02708 l -1.322916,-1.32292 h -0.529167 l -0.529167,-0.52917 0.264584,-0.26458 v -2.38125 l -2.381251,-1.85208 h -0.264583 v -2.38126 H 8.4666655 Z"
       id="path7061" />
    <path
       style="display:inline;fill:#000000;stroke:none;stroke-width:0.26458332px;stroke-linecap:butt;stroke-linejoin:miter;stroke-opacity:1"
       d="m 7.1437485,282.18332 v 2.11667 h -0.264583 l -2.38125,1.85208 v 1.5875 l 1.058333,1.32292 h -1.058333 l -0.5291671,0.52917 H 3.4395816 l -1.0583333,1.05833 v 4.23333 h 6.0854172 6.0854165 v -4.23333 l -1.058334,-1.05833 h -0.529166 l -0.529167,-0.52917 h -1.058333 l 1.058333,-1.32292 v -1.5875 l -2.38125,-1.85208 H 9.7895815 v -2.11667 h -1.322916 z"
       id="path7043"
       inkscape:connector-curvature="0"
       sodipodi:nodetypes="ccccccccccccccccccccccccc" />
    <path
       inkscape:connector-curvature="0"
       style="display:inline;fill:#ffffff;stroke:none;stroke-width:0.26458332px;stroke-linecap:butt;stroke-linejoin:miter;stroke-opacity:1"
       d="m 7.1437485,284.82916 -2.116667,1.5875 v 1.05833 l 0.79375,1.05833 h 0.529167 l 0.264583,-0.26458 v -0.52917 l -0.529166,-0.52916 v -0.52917 l 1.058333,-0.79375 v 2.91042 l -1.5875,1.5875 v 0.79375 h 1.058333 v -0.52917 l 1.322917,-1.32292 0.264583,-0.26458 h 0.264584 0.264583 l 0.264583,0.26458 1.3229165,1.32292 v 0.52917 h 1.058334 v -0.79375 l -1.5875005,-1.5875 v -2.91042 l 1.0583335,0.79375 v 0.52917 l -0.529167,0.52916 v 0.52917 l 0.264583,0.26458 h 0.529167 l 0.79375,-1.05833 v -1.05833 l -2.1166665,-1.5875 h -1.322916 z"
       id="path7006" />
    <path
       style="display:inline;fill:#ffffff;stroke:none;stroke-width:0.26458332px;stroke-linecap:butt;stroke-linejoin:miter;stroke-opacity:1"
       d="m 7.6729155,282.71248 h 1.5875 v 1.5875 h -1.5875 z"
       id="path6720-2"
       inkscape:connector-curvature="0"
       sodipodi:nodetypes="ccccc" />
    <path
       style="display:inline;fill:#464222;fill-opacity:1;stroke:none;stroke-width:0.26458332px;stroke-linecap:butt;stroke-linejoin:miter;stroke-opacity:1"
       d="m 8.7312485,290.64998 h -1.058333 l -0.529167,0.52918 v 0.79375 l 0.529167,0.52917 v 0.26458 h -0.79375 l -0.529167,-0.52917 h -1.322917 l -0.529166,0.52917 H 3.7041653 v -0.26458 l 0.7937502,-0.79376 h 0.529166 v -1.5875 H 4.2333312 l -1.322916,1.32291 v 2.38126 0.52917 H 14.022914 v -2.11667 h -1.058333 l -0.529167,0.52917 h -0.79375 v -0.26458 l 0.529167,-0.52917 -0.264583,-0.26459 h -1.322917 l -0.529167,0.52917 H 9.2604145 v -0.26458 l 0.529167,-0.52918 v -0.26457 l -0.529167,-0.52918 z"
       id="path7039"
       inkscape:connector-curvature="0" />
    <path
       style="display:inline;fill:#464222;fill-opacity:1;stroke:none;stroke-width:0.26458332px;stroke-linecap:butt;stroke-linejoin:miter;stroke-opacity:1"
       d="m 14.022914,291.70832 h -1.322916 l -0.79375,-0.79375 v -0.52916 l -0.529167,-0.52918 v -0.26457 h 0.79375 l 0.529167,0.52916 h 0.529166 l 0.79375,0.79375 z"
       id="path7041"
       inkscape:connector-curvature="0" />
  </g>
</svg>
