<?xml version="1.0" encoding="UTF-8" standalone="no"?>
<!-- Created with Inkscape (http://www.inkscape.org/) -->

<svg
   xmlns:dc="http://purl.org/dc/elements/1.1/"
   xmlns:cc="http://creativecommons.org/ns#"
   xmlns:rdf="http://www.w3.org/1999/02/22-rdf-syntax-ns#"
   xmlns:svg="http://www.w3.org/2000/svg"
   xmlns="http://www.w3.org/2000/svg"
   xmlns:sodipodi="http://sodipodi.sourceforge.net/DTD/sodipodi-0.dtd"
   xmlns:inkscape="http://www.inkscape.org/namespaces/inkscape"
   width="64"
   height="64"
   viewBox="0 0 16.933333 16.933334"
   version="1.1"
   id="svg1401"
   inkscape:version="0.92.5 (2060ec1f9f, 2020-04-08)"
   sodipodi:docname="StatusEffect-Self Improvement L Icon MHWI.svg">
  <defs
     id="defs1395">
    <pattern
       y="0"
       x="0"
       height="6"
       width="6"
       patternUnits="userSpaceOnUse"
       id="EMFhbasepattern" />
    <pattern
       y="0"
       x="0"
       height="6"
       width="6"
       patternUnits="userSpaceOnUse"
       id="EMFhbasepattern-9" />
    <pattern
       y="0"
       x="0"
       height="6"
       width="6"
       patternUnits="userSpaceOnUse"
       id="EMFhbasepattern-4" />
    <pattern
       y="0"
       x="0"
       height="6"
       width="6"
       patternUnits="userSpaceOnUse"
       id="EMFhbasepattern-92" />
    <filter
       inkscape:collect="always"
       style="color-interpolation-filters:sRGB"
       id="filter6900"
       x="-0.060600001"
       width="1.1212"
       y="-0.059411764"
       height="1.1188235">
      <feGaussianBlur
         inkscape:collect="always"
         stdDeviation="1.2625"
         id="feGaussianBlur6902" />
    </filter>
  </defs>
  <sodipodi:namedview
     id="base"
     pagecolor="#ffffff"
     bordercolor="#666666"
     borderopacity="1.0"
     inkscape:pageopacity="0.0"
     inkscape:pageshadow="2"
     inkscape:zoom="2.8"
     inkscape:cx="27.723717"
     inkscape:cy="54.277668"
     inkscape:document-units="px"
     inkscape:current-layer="layer1"
     showgrid="false"
     units="px"
     inkscape:window-width="1920"
     inkscape:window-height="1017"
     inkscape:window-x="1912"
     inkscape:window-y="-8"
     inkscape:window-maximized="1" />
  <metadata
     id="metadata1398">
    <rdf:RDF>
      <cc:Work
         rdf:about="">
        <dc:format>image/svg+xml</dc:format>
        <dc:type
           rdf:resource="http://purl.org/dc/dcmitype/StillImage" />
        <dc:title></dc:title>
      </cc:Work>
    </rdf:RDF>
  </metadata>
  <g
     inkscape:label="Layer 1"
     inkscape:groupmode="layer"
     id="layer1"
     transform="translate(0,-280.06665)">
    <path
       style="display:inline;fill:#000000;fill-opacity:1;stroke:#000000;stroke-width:0.99999994;stroke-linecap:butt;stroke-linejoin:miter;stroke-miterlimit:20;stroke-dasharray:none;stroke-opacity:1;filter:url(#filter6900)"
       d="m 10.03,3.03 v 11 H 3.0300001 v 4 l 4,4 H 13.03 v -4 l 3,3 h 7 v -18 z m 3,4 h 6 v 7 h -6 z m 15,10 v 33 c 0,0.99999 -1,0.99999 -1,1 h -8 c -1,0 -1,-1 -1,-1 v -8 h 5 v 3 h -3 v 1 c 0,2 2,1.99999 2,2 h 4 v -10 h -12 v 12 c 0,3.99999 4,3.99999 4,4 h 10 c 4,0 4,-4 4,-4 v -28 h 17 v 28 c 0,0.99999 -1,1 -1,1 h -9 c -1,0 -1,-1.00001 -1,-1 v -8 h 5 v 3 h -3 v 1 c 0,2 2,1.99999 2,2 h 4 v -10 h -12 v 12 c 0,3.99999 4,3.99999 4,4 h 11 c 4,0 4,-4 4,-4 v -33 z"
       id="path4056-4"
       inkscape:connector-curvature="0"
       transform="matrix(0.26458334,0,0,0.26458334,1.050396,280.98475)" />
    <path
       style="display:inline;fill:#7599bd;fill-opacity:1;stroke:none;stroke-width:0.26458332px;stroke-linecap:butt;stroke-linejoin:miter;stroke-opacity:1"
       d="m 8.4666668,285.4906 v 8.73125 c 0,0.26459 -0.2645833,0.26459 -0.2645833,0.26459 H 6.0854169 c -0.2645831,0 -0.2645834,-0.26459 -0.2645834,-0.26459 v -2.11666 h 1.3229167 v 0.79375 h -0.79375 v 0.26458 c 0,0.52917 0.5291667,0.52917 0.5291667,0.52917 h 1.0583333 v -2.64584 h -3.175 v 3.175 c 0,1.05834 1.0583333,1.05834 1.0583333,1.05834 h 2.6458333 c 1.0583331,0 1.0583334,-1.05834 1.0583334,-1.05834 v -7.40833 h 4.4979168 v 7.40833 c 0,0.26459 -0.264583,0.26459 -0.264583,0.26459 h -2.38125 c -0.264584,0 -0.264584,-0.26459 -0.264584,-0.26459 v -2.11666 h 1.322917 v 0.79375 h -0.79375 v 0.26458 c 0,0.52917 0.529167,0.52917 0.529167,0.52917 h 1.058333 v -2.64584 h -3.175 v 3.175 c 0,1.05834 1.058333,1.05834 1.058333,1.05834 h 2.910417 c 1.058333,0 1.058333,-1.05834 1.058333,-1.05834 v -8.73125 z"
       id="path4056"
       inkscape:connector-curvature="0"
       sodipodi:nodetypes="cscscccccsccccscscccscscccccsccccscsccc" />
    <path
       style="display:inline;fill:#527ba0;fill-opacity:1;stroke:none;stroke-width:0.26458332px;stroke-linecap:butt;stroke-linejoin:miter;stroke-opacity:1"
       d="m 3.7041669,281.78644 v 2.91041 H 1.8520835 v 1.05834 l 1.0583334,1.05833 h 1.5875 v -1.05833 l 0.79375,0.79375 h 1.8520833 v -4.7625 z m 0.79375,1.05833 h 1.5875 v 1.85208 h -1.5875 z"
       id="path4076"
       inkscape:connector-curvature="0" />
  </g>
</svg>
