<?xml version="1.0" encoding="UTF-8" standalone="no"?>
<!-- Created with Inkscape (http://www.inkscape.org/) -->

<svg
   xmlns:dc="http://purl.org/dc/elements/1.1/"
   xmlns:cc="http://creativecommons.org/ns#"
   xmlns:rdf="http://www.w3.org/1999/02/22-rdf-syntax-ns#"
   xmlns:svg="http://www.w3.org/2000/svg"
   xmlns="http://www.w3.org/2000/svg"
   xmlns:sodipodi="http://sodipodi.sourceforge.net/DTD/sodipodi-0.dtd"
   xmlns:inkscape="http://www.inkscape.org/namespaces/inkscape"
   width="64"
   height="64"
   viewBox="0 0 16.933333 16.933334"
   version="1.1"
   id="svg1401"
   inkscape:version="0.92.5 (2060ec1f9f, 2020-04-08)"
   sodipodi:docname="StatusEffect-Earplugs L Icon MHW.svg">
  <defs
     id="defs1395">
    <pattern
       y="0"
       x="0"
       height="6"
       width="6"
       patternUnits="userSpaceOnUse"
       id="EMFhbasepattern" />
    <pattern
       y="0"
       x="0"
       height="6"
       width="6"
       patternUnits="userSpaceOnUse"
       id="EMFhbasepattern-9" />
    <pattern
       y="0"
       x="0"
       height="6"
       width="6"
       patternUnits="userSpaceOnUse"
       id="EMFhbasepattern-4" />
    <pattern
       y="0"
       x="0"
       height="6"
       width="6"
       patternUnits="userSpaceOnUse"
       id="EMFhbasepattern-92" />
    <filter
       inkscape:collect="always"
       style="color-interpolation-filters:sRGB"
       id="filter2627"
       x="-0.057692293"
       width="1.1153846"
       y="-0.062500017"
       height="1.125">
      <feGaussianBlur
         inkscape:collect="always"
         stdDeviation="0.33072665"
         id="feGaussianBlur2629" />
    </filter>
  </defs>
  <sodipodi:namedview
     id="base"
     pagecolor="#ffffff"
     bordercolor="#666666"
     borderopacity="1.0"
     inkscape:pageopacity="0.0"
     inkscape:pageshadow="2"
     inkscape:zoom="2.8"
     inkscape:cx="-2.9905692"
     inkscape:cy="16.063382"
     inkscape:document-units="px"
     inkscape:current-layer="layer1"
     showgrid="false"
     units="px"
     inkscape:window-width="1920"
     inkscape:window-height="1017"
     inkscape:window-x="1912"
     inkscape:window-y="-8"
     inkscape:window-maximized="1" />
  <metadata
     id="metadata1398">
    <rdf:RDF>
      <cc:Work
         rdf:about="">
        <dc:format>image/svg+xml</dc:format>
        <dc:type
           rdf:resource="http://purl.org/dc/dcmitype/StillImage" />
        <dc:title></dc:title>
      </cc:Work>
    </rdf:RDF>
  </metadata>
  <g
     inkscape:label="Layer 1"
     inkscape:groupmode="layer"
     id="layer1"
     transform="translate(0,-280.06665)">
    <path
       id="path2608"
       d="m 5.2916907,282.18337 v 10.58325 h 6.0747883 v -10.58325 z m -0.529163,2.11665 -3.174977,3.17497 v 7.40828 h 1.587489 v -0.52916 l 1.312323,-1.58749 v -3.9793 l -1.587488,1.58749 -0.529163,-0.52917 2.391816,-2.37065 v -1.05832 l -2.116651,2.11665 -0.529163,-0.52916 2.645814,-2.64582 z m 7.4082783,0 v 1.05832 l 2.645814,2.64582 -0.529163,0.52916 -2.116651,-2.11665 v 1.05832 l 2.37065,2.37065 -0.529163,0.52917 -1.587488,-1.58749 v 3.9793 l 1.33349,1.58749 v 0.52916 h 1.587488 v -7.40828 z m -6.3499533,0.254 h 2.116652 v 3.9793 h 1.058325 v 0.78316 h -1.862653 v -3.95814 h -1.312324 z m 3.428975,0 h 1.5874883 v 0.80432 H 9.2498277 Z"
       style="fill:#000000;fill-opacity:1;fill-rule:nonzero;stroke:#000000;stroke-width:0.25399813px;stroke-linecap:butt;stroke-linejoin:miter;stroke-miterlimit:20;stroke-dasharray:none;stroke-opacity:1;filter:url(#filter2627)"
       inkscape:connector-curvature="0" />
    <path
       id="path2610"
       d="m 5.2916907,282.18337 v 10.58325 h 6.0747883 v -10.58325 z m 0.529162,2.37065 h 2.116652 v 3.9793 h 1.058325 v 0.78316 h -1.862653 v -3.95814 h -1.312324 z m 3.428975,0 h 1.5874883 v 0.80432 H 9.2498277 Z"
       style="fill:#ab968b;fill-opacity:1;fill-rule:nonzero;stroke:none;stroke-width:0.26458335"
       inkscape:connector-curvature="0" />
    <path
       id="path2612"
       d="m 12.170806,284.30002 3.174977,3.17497 v 7.40828 h -1.587488 v -0.55033 l -1.33349,-1.58748 v -3.95814 l 1.587488,1.58749 0.529163,-0.52917 -2.37065,-2.37065 v -1.07949 l 2.095485,2.13782 0.529163,-0.55033 -2.624648,-2.62465 z"
       style="fill:#ab968b;fill-opacity:1;fill-rule:nonzero;stroke:none;stroke-width:0.26458335"
       inkscape:connector-curvature="0" />
    <path
       id="path2614"
       d="m 4.7625277,284.30002 -3.196143,3.17497 v 7.40828 h 1.608655 v -0.55033 l 1.312323,-1.58748 v -3.95814 l -1.587488,1.58749 -0.529163,-0.52917 2.391816,-2.37065 v -1.07949 l -2.116651,2.13782 -0.529163,-0.55033 2.645814,-2.62465 z"
       style="fill:#ab968b;fill-opacity:1;fill-rule:nonzero;stroke:none;stroke-width:0.26458335"
       inkscape:connector-curvature="0" />
  </g>
</svg>
