<?xml version="1.0" encoding="UTF-8" standalone="no"?>
<!-- Created with Inkscape (http://www.inkscape.org/) -->

<svg
   xmlns:dc="http://purl.org/dc/elements/1.1/"
   xmlns:cc="http://creativecommons.org/ns#"
   xmlns:rdf="http://www.w3.org/1999/02/22-rdf-syntax-ns#"
   xmlns:svg="http://www.w3.org/2000/svg"
   xmlns="http://www.w3.org/2000/svg"
   xmlns:sodipodi="http://sodipodi.sourceforge.net/DTD/sodipodi-0.dtd"
   xmlns:inkscape="http://www.inkscape.org/namespaces/inkscape"
   width="64"
   height="64"
   viewBox="0 0 16.933333 16.933334"
   version="1.1"
   id="svg1401"
   inkscape:version="0.92.5 (2060ec1f9f, 2020-04-08)"
   sodipodi:docname="StatusEffect-Divine Protection Boost Icon MHW.svg">
  <defs
     id="defs1395">
    <pattern
       y="0"
       x="0"
       height="6"
       width="6"
       patternUnits="userSpaceOnUse"
       id="EMFhbasepattern" />
    <pattern
       y="0"
       x="0"
       height="6"
       width="6"
       patternUnits="userSpaceOnUse"
       id="EMFhbasepattern-9" />
    <pattern
       y="0"
       x="0"
       height="6"
       width="6"
       patternUnits="userSpaceOnUse"
       id="EMFhbasepattern-4" />
    <pattern
       y="0"
       x="0"
       height="6"
       width="6"
       patternUnits="userSpaceOnUse"
       id="EMFhbasepattern-92" />
    <filter
       inkscape:collect="always"
       style="color-interpolation-filters:sRGB"
       id="filter6315"
       x="-0.059999999"
       width="1.12"
       y="-0.060000002"
       height="1.12">
      <feGaussianBlur
         inkscape:collect="always"
         stdDeviation="1.1000001"
         id="feGaussianBlur6317" />
    </filter>
  </defs>
  <sodipodi:namedview
     id="base"
     pagecolor="#ffffff"
     bordercolor="#666666"
     borderopacity="1.0"
     inkscape:pageopacity="0.0"
     inkscape:pageshadow="2"
     inkscape:zoom="2.8"
     inkscape:cx="59.509431"
     inkscape:cy="49.634811"
     inkscape:document-units="px"
     inkscape:current-layer="layer1"
     showgrid="false"
     units="px"
     inkscape:window-width="1920"
     inkscape:window-height="1017"
     inkscape:window-x="1912"
     inkscape:window-y="-8"
     inkscape:window-maximized="1" />
  <metadata
     id="metadata1398">
    <rdf:RDF>
      <cc:Work
         rdf:about="">
        <dc:format>image/svg+xml</dc:format>
        <dc:type
           rdf:resource="http://purl.org/dc/dcmitype/StillImage" />
        <dc:title></dc:title>
      </cc:Work>
    </rdf:RDF>
  </metadata>
  <g
     inkscape:label="Layer 1"
     inkscape:groupmode="layer"
     id="layer1"
     transform="translate(0,-280.06665)">
    <path
       style="display:inline;fill:#000000;fill-opacity:1;stroke:#000000;stroke-width:0.99999994;stroke-linecap:butt;stroke-linejoin:miter;stroke-miterlimit:20;stroke-dasharray:none;stroke-opacity:1;filter:url(#filter6315)"
       d="m 24.640004,2.6400001 -1,7 -1,9.9999999 -3,-2 -5,-4 -4,-3 3,4 4,5 2,3 -9.9999998,1 -7.000004,1 7.000004,1 9.9999998,1 -2,3 -4,5 -3,4 4,-3 5,-4 3,-2 1,10 1,7 1,-7 1,-10 3,2 5,4 4,3 -3,-4 -4,-5 -2,-3 10,-1 7,-1 -7,-1 -10,-1 2,-3 4,-5 3,-4 -4,3 -5,4 -3,2 -1,-9.9999999 z"
       id="path4220-4-5"
       inkscape:connector-curvature="0"
       transform="matrix(0.26458334,0,0,0.26458334,1.9473327,282.01398)" />
    <path
       style="display:inline;fill:#c08365;fill-opacity:1;stroke:none;stroke-width:0.26458332px;stroke-linecap:butt;stroke-linejoin:miter;stroke-opacity:1"
       d="m 12.435416,288.26873 -0.264583,0.26458 0.264583,0.26459 1.852084,-0.26459 z"
       id="path4220-4"
       inkscape:connector-curvature="0" />
    <path
       style="display:inline;fill:#c08365;fill-opacity:1;stroke:none;stroke-width:0.26458332px;stroke-linecap:butt;stroke-linejoin:miter;stroke-opacity:1"
       d="m 11.1125,285.6229 1.058333,-0.79375 -0.79375,1.05833 z"
       id="path4242"
       inkscape:connector-curvature="0" />
    <path
       style="display:inline;fill:#c08365;fill-opacity:1;stroke:none;stroke-width:0.26458332px;stroke-linecap:butt;stroke-linejoin:miter;stroke-opacity:1"
       d="m 8.4666668,282.71248 -0.2645834,1.85208 0.2645834,0.26459 0.2645833,-0.26459 z"
       id="path4220"
       inkscape:connector-curvature="0" />
    <path
       style="display:inline;fill:#dfbe86;fill-opacity:1;stroke:none;stroke-width:0.26458332px;stroke-linecap:butt;stroke-linejoin:miter;stroke-opacity:1"
       d="m 9.7895834,288.00415 v 0.26458 l 0.7937496,0.26458 -0.7937496,0.26459 v 0.26458 L 12.435416,288.7979 12.7,288.53331 12.435416,288.26873 Z"
       id="path4201-7"
       inkscape:connector-curvature="0" />
    <path
       style="display:inline;fill:#dfbe86;fill-opacity:1;stroke:none;stroke-width:0.26458332px;stroke-linecap:butt;stroke-linejoin:miter;stroke-opacity:1"
       d="M 9.7895832,286.68123 11.1125,285.6229 h 0.264583 v 0.26458 l -1.058333,1.32292 z"
       id="path4203"
       inkscape:connector-curvature="0" />
    <path
       style="display:inline;fill:#dfbe86;fill-opacity:1;stroke:none;stroke-width:0.26458332px;stroke-linecap:butt;stroke-linejoin:miter;stroke-opacity:1"
       d="m 8.4666668,284.29998 -0.2645834,0.26458 -0.2645833,2.64584 h 0.2645833 l 0.2645834,-0.79375 0.2645833,0.79375 h 0.2645833 l -0.2645833,-2.64584 z"
       id="path4201"
       inkscape:connector-curvature="0" />
    <path
       style="display:inline;fill:#c08365;fill-opacity:1;stroke:none;stroke-width:0.26458332px;stroke-linecap:butt;stroke-linejoin:miter;stroke-opacity:1"
       d="m 11.1125,291.44373 1.058333,0.79375 -0.79375,-1.05833 z"
       id="path4242-5"
       inkscape:connector-curvature="0" />
    <path
       style="display:inline;fill:#c08365;fill-opacity:1;stroke:none;stroke-width:0.26458332px;stroke-linecap:butt;stroke-linejoin:miter;stroke-opacity:1"
       d="m 8.4666668,292.23748 -0.2645834,0.26458 0.2645834,1.85209 0.2645833,-1.85209 z"
       id="path4220-0"
       inkscape:connector-curvature="0" />
    <path
       style="display:inline;fill:#dfbe86;fill-opacity:1;stroke:none;stroke-width:0.26458332px;stroke-linecap:butt;stroke-linejoin:miter;stroke-opacity:1"
       d="m 9.7895832,290.3854 1.3229168,1.05833 h 0.264583 v -0.26458 l -1.058333,-1.32292 z"
       id="path4203-3"
       inkscape:connector-curvature="0" />
    <path
       style="display:inline;fill:#dfbe86;fill-opacity:1;stroke:none;stroke-width:0.26458332px;stroke-linecap:butt;stroke-linejoin:miter;stroke-opacity:1"
       d="m 7.9375001,289.85623 0.2645833,2.64583 0.2645834,0.26459 0.2645833,-0.26459 0.2645833,-2.64583 H 8.7312501 l -0.2645833,0.79375 -0.2645834,-0.79375 z"
       id="path4201-2"
       inkscape:connector-curvature="0" />
    <path
       inkscape:connector-curvature="0"
       style="display:inline;fill:#c08365;fill-opacity:1;stroke:none;stroke-width:0.26458332px;stroke-linecap:butt;stroke-linejoin:miter;stroke-opacity:1"
       d="m 4.497915,288.26873 0.264584,0.26458 -0.264584,0.26459 -1.8520833,-0.26459 z"
       id="path4220-4-3" />
    <path
       style="display:inline;fill:#c08365;fill-opacity:1;stroke:none;stroke-width:0.26458332px;stroke-linecap:butt;stroke-linejoin:miter;stroke-opacity:1"
       d="m 5.8208321,285.6229 -1.0583331,-0.79375 0.79375,1.05833 z"
       id="path4242-52"
       inkscape:connector-curvature="0" />
    <path
       inkscape:connector-curvature="0"
       style="display:inline;fill:#dfbe86;fill-opacity:1;stroke:none;stroke-width:0.26458332px;stroke-linecap:butt;stroke-linejoin:miter;stroke-opacity:1"
       d="m 7.143749,288.00415 v 0.26458 l -0.79375,0.26458 0.79375,0.26459 v 0.26458 l -2.645834,-0.26458 -0.264583,-0.26459 0.264583,-0.26458 z"
       id="path4201-7-4" />
    <path
       style="display:inline;fill:#dfbe86;fill-opacity:1;stroke:none;stroke-width:0.26458332px;stroke-linecap:butt;stroke-linejoin:miter;stroke-opacity:1"
       d="M 7.143749,286.68123 5.8208321,285.6229 H 5.556249 v 0.26458 l 1.0583331,1.32292 z"
       id="path4203-4"
       inkscape:connector-curvature="0" />
    <path
       style="display:inline;fill:#c08365;fill-opacity:1;stroke:none;stroke-width:0.26458332px;stroke-linecap:butt;stroke-linejoin:miter;stroke-opacity:1"
       d="m 5.8208321,291.44373 -1.0583331,0.79375 0.79375,-1.05833 z"
       id="path4242-5-5"
       inkscape:connector-curvature="0" />
    <path
       style="display:inline;fill:#dfbe86;fill-opacity:1;stroke:none;stroke-width:0.26458332px;stroke-linecap:butt;stroke-linejoin:miter;stroke-opacity:1"
       d="m 7.143749,290.3854 -1.3229169,1.05833 H 5.556249 v -0.26458 l 1.0583331,-1.32292 z"
       id="path4203-3-4"
       inkscape:connector-curvature="0" />
    <path
       style="display:inline;fill:#e3e382;fill-opacity:0.98431373;stroke:none;stroke-width:0.26458332px;stroke-linecap:butt;stroke-linejoin:miter;stroke-opacity:1"
       d="m 8.4666668,286.15206 -0.5291667,1.05834 -0.79375,-0.52917 H 6.6145834 v 0.52917 l 0.5291667,0.79375 -1.0583334,0.52916 1.0583334,0.52917 -0.5291667,0.79375 v 0.52917 h 0.5291667 l 0.79375,-0.52917 0.5291667,1.05833 0.5291666,-1.05833 0.79375,0.52917 H 10.31875 v -0.52917 l -0.5291666,-0.79375 1.0583336,-0.52917 -1.0583336,-0.52916 0.5291666,-0.79375 v -0.52917 H 9.7895834 l -0.79375,0.52917 z"
       id="path4180"
       inkscape:connector-curvature="0" />
    <path
       style="display:inline;fill:#ffffff;stroke:none;stroke-width:0.26458332px;stroke-linecap:butt;stroke-linejoin:miter;stroke-opacity:1"
       d="m 8.466667,287.2104 -0.2645838,0.52916 -0.7937501,-0.26458 0.2645839,0.79375 -0.5291669,0.26458 0.5291669,0.26459 -0.2645839,0.79375 0.7937501,-0.26459 0.2645838,0.52917 0.2645831,-0.52917 0.79375,0.26459 -0.2645831,-0.79375 0.5291662,-0.26459 -0.5291662,-0.26458 0.2645831,-0.79375 -0.79375,0.26458 z"
       id="path4332"
       inkscape:connector-curvature="0"
       sodipodi:nodetypes="ccccccccccccccccc" />
  </g>
</svg>
