<?xml version="1.0" encoding="UTF-8" standalone="no"?>
<!-- Created with Inkscape (http://www.inkscape.org/) -->

<svg
   xmlns:dc="http://purl.org/dc/elements/1.1/"
   xmlns:cc="http://creativecommons.org/ns#"
   xmlns:rdf="http://www.w3.org/1999/02/22-rdf-syntax-ns#"
   xmlns:svg="http://www.w3.org/2000/svg"
   xmlns="http://www.w3.org/2000/svg"
   xmlns:sodipodi="http://sodipodi.sourceforge.net/DTD/sodipodi-0.dtd"
   xmlns:inkscape="http://www.inkscape.org/namespaces/inkscape"
   width="64"
   height="64"
   viewBox="0 0 16.933333 16.933334"
   version="1.1"
   id="svg1401"
   inkscape:version="0.92.5 (2060ec1f9f, 2020-04-08)"
   sodipodi:docname="StatusEffect-Knockback Negated Icon MHW.svg">
  <defs
     id="defs1395">
    <pattern
       y="0"
       x="0"
       height="6"
       width="6"
       patternUnits="userSpaceOnUse"
       id="EMFhbasepattern" />
    <pattern
       y="0"
       x="0"
       height="6"
       width="6"
       patternUnits="userSpaceOnUse"
       id="EMFhbasepattern-9" />
    <pattern
       y="0"
       x="0"
       height="6"
       width="6"
       patternUnits="userSpaceOnUse"
       id="EMFhbasepattern-4" />
    <pattern
       y="0"
       x="0"
       height="6"
       width="6"
       patternUnits="userSpaceOnUse"
       id="EMFhbasepattern-92" />
    <filter
       inkscape:collect="always"
       style="color-interpolation-filters:sRGB"
       id="filter7062-4"
       x="-0.064186037"
       width="1.1283721"
       y="-0.056326538"
       height="1.1126531">
      <feGaussianBlur
         inkscape:collect="always"
         stdDeviation="0.3042708"
         id="feGaussianBlur7064-5" />
    </filter>
  </defs>
  <sodipodi:namedview
     id="base"
     pagecolor="#ffffff"
     bordercolor="#666666"
     borderopacity="1.0"
     inkscape:pageopacity="0.0"
     inkscape:pageshadow="2"
     inkscape:zoom="5.6"
     inkscape:cx="63.940655"
     inkscape:cy="33.657798"
     inkscape:document-units="px"
     inkscape:current-layer="layer1"
     showgrid="false"
     units="px"
     inkscape:window-width="1920"
     inkscape:window-height="1017"
     inkscape:window-x="1912"
     inkscape:window-y="-8"
     inkscape:window-maximized="1" />
  <metadata
     id="metadata1398">
    <rdf:RDF>
      <cc:Work
         rdf:about="">
        <dc:format>image/svg+xml</dc:format>
        <dc:type
           rdf:resource="http://purl.org/dc/dcmitype/StillImage" />
        <dc:title></dc:title>
      </cc:Work>
    </rdf:RDF>
  </metadata>
  <g
     inkscape:label="Layer 1"
     inkscape:groupmode="layer"
     id="layer1"
     transform="translate(0,-280.06665)">
    <path
       style="display:inline;fill:#000000;fill-opacity:1;stroke:#000000;stroke-width:0.26458332;stroke-linecap:butt;stroke-linejoin:miter;stroke-miterlimit:20;stroke-dasharray:none;stroke-opacity:1;filter:url(#filter7062-4)"
       d="m 3.4395852,282.05102 c 0,0 -0.529167,0 -0.529167,0.52917 v 4.23333 h 2.1166671 l 1.322917,-1.05833 v -3.70417 z m 7.1437468,1e-5 v 3.70417 l 1.322917,1.05833 h 2.116666 v -4.23333 c 0,-0.52917 -0.529166,-0.52917 -0.529166,-0.52917 z m -3.4395797,1.85207 v 0.79375 2.91042 H 4.2333352 v 1.32292 0.79375 0.52916 l 0.7937501,1.05834 v 0.52916 l -1.5875001,1.32292 v 0.79375 1.05833 l 10.0541638,10e-6 v -1.05833 -0.79375 l -1.5875,-1.32292 v -0.52916 l 0.79375,-1.05834 v -0.52916 -0.79375 -1.32292 H 9.7895824 v -2.91042 -0.79375 z"
       id="path4428-3-0"
       inkscape:connector-curvature="0"
       sodipodi:nodetypes="cscccccccccsccccccccccccccccccccccccccc" />
    <path
       style="display:inline;fill:#7d774f;fill-opacity:1;stroke:none;stroke-width:0.26458332px;stroke-linecap:butt;stroke-linejoin:miter;stroke-opacity:1"
       d="m 9.7895864,284.69686 v -0.79375 H 7.1437536 v 0.79375 l 1.3229159,0.52916 z"
       id="path4428-2"
       inkscape:connector-curvature="0" />
    <path
       style="display:inline;fill:#7d774f;fill-opacity:1;stroke:none;stroke-width:0.26458332px;stroke-linecap:butt;stroke-linejoin:miter;stroke-opacity:1"
       d="m 12.7,288.93019 -4.2333305,-0.52916 -4.2333341,0.52916 v 0.79375 L 8.4666695,290.25311 12.7,289.72394 Z"
       id="path4368-1-4"
       inkscape:connector-curvature="0"
       sodipodi:nodetypes="ccccccc" />
    <path
       style="display:inline;fill:#7d774f;fill-opacity:1;stroke:none;stroke-width:0.26458332px;stroke-linecap:butt;stroke-linejoin:miter;stroke-opacity:1"
       d="m 13.49375,293.16352 -5.0270805,-0.52916 -5.0270841,0.52916 v 0.79375 l 5.0270841,0.52917 5.0270805,-0.52917 z"
       id="path4368-13"
       inkscape:connector-curvature="0"
       sodipodi:nodetypes="ccccccc" />
    <path
       style="display:inline;fill:#ccbf75;fill-opacity:1;stroke:none;stroke-width:0.26458332px;stroke-linecap:butt;stroke-linejoin:miter;stroke-opacity:1"
       d="m 13.49375,293.95727 v 1.05834 H 3.4395854 v -1.05834 z"
       id="path4366-0"
       inkscape:connector-curvature="0"
       sodipodi:nodetypes="ccccc" />
    <path
       style="display:inline;fill:#ccbf75;fill-opacity:1;stroke:none;stroke-width:0.26458332px;stroke-linecap:butt;stroke-linejoin:miter;stroke-opacity:1"
       d="m 4.2333354,289.72394 v 0.52917 l 0.7937499,1.05833 v 0.52917 l -1.5874999,1.32291 c 3.3513899,0 6.7027746,0 10.0541646,0 l -1.5875,-1.32291 v -0.52917 L 12.7,290.25311 v -0.52917 c -2.8222216,0 -5.6444426,0 -8.4666646,0 z"
       id="path4370-12"
       inkscape:connector-curvature="0"
       sodipodi:nodetypes="ccccccccccc" />
    <path
       style="display:inline;fill:#7d774f;fill-opacity:1;stroke:none;stroke-width:0.26458332px;stroke-linecap:butt;stroke-linejoin:miter;stroke-opacity:1"
       d="m 9.7895864,291.04686 h 0.7937546 v 0.79375 H 9.7895864 Z"
       id="path4372-0"
       inkscape:connector-curvature="0" />
    <path
       style="display:inline;fill:#7d774f;fill-opacity:1;stroke:none;stroke-width:0.26458332px;stroke-linecap:butt;stroke-linejoin:miter;stroke-opacity:1"
       d="M 7.1437536,291.04686 H 6.3500033 v 0.79375 h 0.7937503 z"
       id="path4372-1-0"
       inkscape:connector-curvature="0" />
    <path
       style="display:inline;fill:#ccbf75;fill-opacity:1;stroke:none;stroke-width:0.26458332px;stroke-linecap:butt;stroke-linejoin:miter;stroke-opacity:1"
       d="m 7.1437536,284.69686 v 2.91041 H 4.2333354 v 1.32292 c 2.822222,0 5.644443,0 8.4666646,0 v -1.32292 H 9.7895864 v -2.91041 c -0.8819449,0 -1.7638901,0 -2.6458328,0 z"
       id="path4408-3"
       inkscape:connector-curvature="0"
       sodipodi:nodetypes="ccccccccc" />
    <path
       style="display:inline;fill:#ccbf75;fill-opacity:1;stroke:none;stroke-width:0.26458332px;stroke-linecap:butt;stroke-linejoin:miter;stroke-opacity:1"
       d="m 11.90625,286.81352 -1.322909,-1.05833 v -3.70417 h 2.910409 c 0,0 0.52917,0 0.52917,0.52917 0,0.52917 0,4.23333 0,4.23333 z"
       id="path4430-8"
       inkscape:connector-curvature="0" />
    <path
       style="display:inline;fill:#7d774f;fill-opacity:1;stroke:none;stroke-width:0.26458332px;stroke-linecap:butt;stroke-linejoin:miter;stroke-opacity:1"
       d="m 11.641671,283.63852 h 0.793749 v 0.79375 h -0.793749 z"
       id="path4432-5"
       inkscape:connector-curvature="0" />
    <path
       style="display:inline;fill:#ccbf75;fill-opacity:1;stroke:none;stroke-width:0.26458332px;stroke-linecap:butt;stroke-linejoin:miter;stroke-opacity:1"
       d="m 5.0270853,286.81352 1.322918,-1.05833 v -3.70417 H 3.4395854 c 0,0 -0.5291671,0 -0.5291671,0.52917 0,0.52917 0,4.23333 0,4.23333 z"
       id="path4430-6-28"
       inkscape:connector-curvature="0" />
    <path
       style="display:inline;fill:#7d774f;fill-opacity:1;stroke:none;stroke-width:0.26458332px;stroke-linecap:butt;stroke-linejoin:miter;stroke-opacity:1"
       d="m 5.2916684,283.63852 h -0.79375 v 0.79375 h 0.79375 z"
       id="path4432-7-2"
       inkscape:connector-curvature="0" />
  </g>
</svg>
