<?xml version="1.0" encoding="UTF-8" standalone="no"?>
<!-- Created with Inkscape (http://www.inkscape.org/) -->

<svg
   xmlns:dc="http://purl.org/dc/elements/1.1/"
   xmlns:cc="http://creativecommons.org/ns#"
   xmlns:rdf="http://www.w3.org/1999/02/22-rdf-syntax-ns#"
   xmlns:svg="http://www.w3.org/2000/svg"
   xmlns="http://www.w3.org/2000/svg"
   xmlns:sodipodi="http://sodipodi.sourceforge.net/DTD/sodipodi-0.dtd"
   xmlns:inkscape="http://www.inkscape.org/namespaces/inkscape"
   width="64"
   height="64"
   viewBox="0 0 16.933333 16.933334"
   version="1.1"
   id="svg1401"
   inkscape:version="0.92.5 (2060ec1f9f, 2020-04-08)"
   sodipodi:docname="StatusEffect-Muck Res Icon MHW.svg">
  <defs
     id="defs1395">
    <pattern
       y="0"
       x="0"
       height="6"
       width="6"
       patternUnits="userSpaceOnUse"
       id="EMFhbasepattern" />
    <pattern
       y="0"
       x="0"
       height="6"
       width="6"
       patternUnits="userSpaceOnUse"
       id="EMFhbasepattern-9" />
    <pattern
       y="0"
       x="0"
       height="6"
       width="6"
       patternUnits="userSpaceOnUse"
       id="EMFhbasepattern-4" />
    <pattern
       y="0"
       x="0"
       height="6"
       width="6"
       patternUnits="userSpaceOnUse"
       id="EMFhbasepattern-92" />
    <pattern
       y="0"
       x="0"
       height="6"
       width="6"
       patternUnits="userSpaceOnUse"
       id="EMFhbasepattern-5" />
    <filter
       inkscape:collect="always"
       style="color-interpolation-filters:sRGB"
       id="filter3241"
       x="-0.060000016"
       width="1.12"
       y="-0.059999984"
       height="1.12">
      <feGaussianBlur
         inkscape:collect="always"
         stdDeviation="0.34395591"
         id="feGaussianBlur3243" />
    </filter>
  </defs>
  <sodipodi:namedview
     id="base"
     pagecolor="#ffffff"
     bordercolor="#666666"
     borderopacity="1.0"
     inkscape:pageopacity="0.0"
     inkscape:pageshadow="2"
     inkscape:zoom="3.959798"
     inkscape:cx="45.759231"
     inkscape:cy="18.090297"
     inkscape:document-units="px"
     inkscape:current-layer="layer1"
     showgrid="false"
     units="px"
     inkscape:window-width="1920"
     inkscape:window-height="1017"
     inkscape:window-x="1912"
     inkscape:window-y="-8"
     inkscape:window-maximized="1" />
  <metadata
     id="metadata1398">
    <rdf:RDF>
      <cc:Work
         rdf:about="">
        <dc:format>image/svg+xml</dc:format>
        <dc:type
           rdf:resource="http://purl.org/dc/dcmitype/StillImage" />
        <dc:title></dc:title>
      </cc:Work>
    </rdf:RDF>
  </metadata>
  <g
     inkscape:label="Layer 1"
     inkscape:groupmode="layer"
     id="layer1"
     transform="translate(0,-280.06665)">
    <path
       id="path3210"
       d="m 7.4083409,281.6542 v 2.18015 l -2.9844781,-1.73565 -0.8254936,1.20649 3.280809,2.20132 v 1.90498 l -1.3969897,2.96332 H 5.1223578 l -1.4181561,-1.12183 -1.4181562,1.12183 H 1.5875507 v 5.03763 H 15.345783 v -5.03763 h -0.952494 l -1.164158,-1.16416 -1.164157,1.16416 h -0.677329 v -1.94732 l -1.33349,-1.33349 v -1.60866 l 3.005644,-2.45531 -0.825493,-1.22766 -2.709314,1.96848 v -2.11665 z m 0.9736595,6.87912 h 0.5079961 l 0.6349955,0.635 v 0.57149 l -0.6349955,0.635 H 8.3185007 l -0.4444966,-0.42333 z"
       style="fill:#000000;fill-opacity:1;fill-rule:nonzero;stroke:#000000;stroke-width:0.25399813px;stroke-linecap:butt;stroke-linejoin:miter;stroke-miterlimit:20;stroke-dasharray:none;stroke-opacity:1;filter:url(#filter3241)"
       inkscape:connector-curvature="0" />
    <path
       id="path3212"
       d="m 15.091784,290.64997 v 2.64581 L 1.8627153,293.04179 v -2.39182 h 0.5291628 l 1.3123236,-1.05832 1.33349,1.05832 H 6.62518 l 1.0583254,-0.52916 0.5291627,0.52916 H 8.995829 l 1.33349,-1.31232 1.058326,1.31232 h 0.783161 l 1.058325,-1.05832 1.058326,1.05832 z"
       style="fill:#897e76;fill-opacity:1;fill-rule:nonzero;stroke:none;stroke-width:0.26458335"
       inkscape:connector-curvature="0" />
    <path
       id="path3214"
       d="m 15.091784,292.51262 h -0.529162 l -1.333491,-0.80432 h -0.253998 l -1.33349,0.80432 h -0.253998 l -1.33349,-0.80432 H 9.8001565 l -1.3334902,0.80432 H 8.2126681 L 6.8791782,291.7083 H 6.62518 l -1.3334902,0.80432 H 5.0376917 l -1.33349,-0.80432 H 3.4502035 l -1.33349,0.80432 H 1.8627153 v 1.58749 H 15.091784 Z"
       style="fill:#68605c;fill-opacity:1;fill-rule:nonzero;stroke:none;stroke-width:0.26458335"
       inkscape:connector-curvature="0" />
    <path
       id="path3216"
       d="m 15.091784,293.82495 h -0.529162 l -1.333491,-0.78316 h -0.253998 l -1.33349,0.78316 h -0.253998 l -1.33349,-0.78316 H 9.8001565 l -1.3334902,0.78316 H 8.2126681 L 6.8791782,293.04179 H 6.62518 l -1.3334902,0.78316 H 5.0376917 l -1.33349,-0.78316 H 3.4502035 l -1.33349,0.78316 H 1.8627153 v 1.33349 H 15.091784 Z"
       style="fill:#59504b;fill-opacity:1;fill-rule:nonzero;stroke:none;stroke-width:0.26458335"
       inkscape:connector-curvature="0" />
    <path
       id="path3218"
       d="m 7.6835054,283.77085 h 1.5874884 v 1.05833 H 7.6835054 Z"
       style="fill:#a2945a;fill-opacity:1;fill-rule:nonzero;stroke:none;stroke-width:0.26458335"
       inkscape:connector-curvature="0" />
    <path
       id="path3220"
       d="m 7.6835054,281.92937 h 1.5874884 v 2.11665 H 7.6835054 Z"
       style="fill:#c7b77a;fill-opacity:1;fill-rule:nonzero;stroke:none;stroke-width:0.26458335"
       inkscape:connector-curvature="0" />
    <path
       id="path3222"
       d="m 11.11248,290.64997 -0.253998,0.27517 -0.804327,-1.05833 -0.2539985,-0.80433 -0.8043275,-0.78316 H 8.2126681 l -1.3334899,3.70414 H 5.0376917 l 2.116651,-4.50847 v -2.11665 l -3.1749764,-2.11665 0.5291627,-0.78316 3.1749764,1.84149 0.2539982,0.27516 h 1.3334902 l 2.8998122,-2.39181 0.529163,0.80432 -2.8998125,2.37065 v 2.11665 l 1.3123235,1.05833 z"
       style="fill:#c7b77a;fill-opacity:1;fill-rule:nonzero;stroke:none;stroke-width:0.26458335"
       inkscape:connector-curvature="0" />
    <path
       id="path3224"
       d="M 6.8791782,291.98346 H 5.0376917 l 2.116651,-4.50847 v -2.11665 l -3.1749764,-2.11665 0.5291627,-0.78316 3.1749764,1.84149 v -2.37065 h 1.5874884 v 2.37065 l 2.8998122,-2.11665 0.529163,0.80432 -2.8998125,2.37065 v 1.86266 l 1.3123235,1.31232 v 2.11665 h 1.058326 l 1.058325,-1.05832 1.058326,1.05832 h 0.804327 v 4.50847 H 1.8627153 v -4.50847 h 0.5291628 l 1.3123236,-1.05832 1.33349,1.05832 h 0.5291627 l -0.5291627,1.33349 h 1.8414865 l 1.3334899,-3.70414 H 8.995829 l 0.8043275,0.78316 v 0.80433 L 8.995829,290.64997 H 8.2126681 l -0.5291627,-0.52916 0.5291627,0.52916 H 8.995829 l 0.8043275,-0.78316 v -0.80433 L 8.995829,288.27932 H 8.2126681 Z"
       style="fill:none;stroke:#549a39;stroke-width:0.52916276px;stroke-linecap:butt;stroke-linejoin:miter;stroke-miterlimit:4;stroke-dasharray:none;stroke-opacity:1"
       inkscape:connector-curvature="0" />
  </g>
</svg>
