<?xml version="1.0" encoding="UTF-8" standalone="no"?>
<!-- Created with Inkscape (http://www.inkscape.org/) -->

<svg
   xmlns:dc="http://purl.org/dc/elements/1.1/"
   xmlns:cc="http://creativecommons.org/ns#"
   xmlns:rdf="http://www.w3.org/1999/02/22-rdf-syntax-ns#"
   xmlns:svg="http://www.w3.org/2000/svg"
   xmlns="http://www.w3.org/2000/svg"
   xmlns:sodipodi="http://sodipodi.sourceforge.net/DTD/sodipodi-0.dtd"
   xmlns:inkscape="http://www.inkscape.org/namespaces/inkscape"
   width="64"
   height="64"
   viewBox="0 0 16.933333 16.933334"
   version="1.1"
   id="svg1401"
   inkscape:version="0.92.5 (2060ec1f9f, 2020-04-08)"
   sodipodi:docname="StatusEffect-Cold Res Icon MHWI.svg">
  <defs
     id="defs1395">
    <pattern
       y="0"
       x="0"
       height="6"
       width="6"
       patternUnits="userSpaceOnUse"
       id="EMFhbasepattern" />
    <pattern
       y="0"
       x="0"
       height="6"
       width="6"
       patternUnits="userSpaceOnUse"
       id="EMFhbasepattern-9" />
    <pattern
       y="0"
       x="0"
       height="6"
       width="6"
       patternUnits="userSpaceOnUse"
       id="EMFhbasepattern-4" />
    <pattern
       y="0"
       x="0"
       height="6"
       width="6"
       patternUnits="userSpaceOnUse"
       id="EMFhbasepattern-92" />
    <filter
       inkscape:collect="always"
       style="color-interpolation-filters:sRGB"
       id="filter6552-5"
       x="-0.076764703"
       width="1.1535294"
       y="-0.049245283"
       height="1.0984906">
      <feGaussianBlur
         inkscape:collect="always"
         stdDeviation="1.0875"
         id="feGaussianBlur6554-5" />
    </filter>
  </defs>
  <sodipodi:namedview
     id="base"
     pagecolor="#ffffff"
     bordercolor="#666666"
     borderopacity="1.0"
     inkscape:pageopacity="0.0"
     inkscape:pageshadow="2"
     inkscape:zoom="2.8"
     inkscape:cx="28.795145"
     inkscape:cy="26.063382"
     inkscape:document-units="px"
     inkscape:current-layer="layer1"
     showgrid="false"
     units="px"
     inkscape:window-width="1920"
     inkscape:window-height="1017"
     inkscape:window-x="1912"
     inkscape:window-y="-8"
     inkscape:window-maximized="1" />
  <metadata
     id="metadata1398">
    <rdf:RDF>
      <cc:Work
         rdf:about="">
        <dc:format>image/svg+xml</dc:format>
        <dc:type
           rdf:resource="http://purl.org/dc/dcmitype/StillImage" />
        <dc:title></dc:title>
      </cc:Work>
    </rdf:RDF>
  </metadata>
  <g
     inkscape:label="Layer 1"
     inkscape:groupmode="layer"
     id="layer1"
     transform="translate(0,-280.06665)">
    <path
       style="display:inline;fill:#000000;fill-opacity:1;stroke:#000000;stroke-width:0.99999994;stroke-linecap:butt;stroke-linejoin:miter;stroke-miterlimit:20;stroke-dasharray:none;stroke-opacity:1;filter:url(#filter6552-5)"
       d="m 13.61,2.61 v 4 h -3 c 0,0 -1.0000001,0 -1.0000001,1 v 2 c 0,3 4.0000101,3 4.0000001,7 0,4 -2.99999,5 -6.0000001,5 -3,0 -5,2 -5,5 v 14 c 0,4.00001 8.0000101,15 13.0000001,15 h 4 4 c 5.00001,0 13,-10.99999 13,-15 v -14 c 0,-3 -1.99999,-5 -5,-5 -3,0 -5.99999,-1 -6,-5 0,-4 4,-4 4,-7 v -2 c 0,-1 -1,-1 -1,-1 h -3 v -4 z"
       id="path2050-23-6"
       inkscape:connector-curvature="0"
       transform="matrix(0.26458334,0,0,0.26458334,3.2781875,280.8313)" />
    <path
       style="display:inline;fill:#806145;fill-opacity:1;stroke:none;stroke-width:0.26458332px;stroke-linecap:butt;stroke-linejoin:miter;stroke-opacity:1"
       d="m 6.8791675,282.5802 v -1.05834 h 3.1749995 v 1.05834 l 0.529171,0.52916 v 0.52917 H 6.3499974 v -0.52917 z"
       id="path2050-2-1-8"
       inkscape:connector-curvature="0"
       sodipodi:nodetypes="ccccccccc" />
    <path
       style="display:inline;fill:#b86366;fill-opacity:1;stroke:none;stroke-width:0.26458332px;stroke-linecap:butt;stroke-linejoin:miter;stroke-opacity:1"
       d="m 6.0854175,282.5802 c 0,0 -0.26459,0 -0.26459,0.26458 v 0.52917 c 0,0.79375 1.05834,0.79375 1.05834,1.85208 0,1.05833 -0.79375,1.32292 -1.5875,1.32292 -0.7937501,0 -1.3229201,0.52916 -1.3229201,1.32291 v 3.70417 c 0,1.05833 2.1166701,3.96875 3.4395802,3.96875 h 1.0583399 1.0583296 c 1.3229199,0 3.4395909,-2.91042 3.4395909,-3.96875 v -3.70417 c 0,-0.79375 -0.52917,-1.32291 -1.322921,-1.32291 -0.79375,0 -1.5875,-0.26459 -1.5875,-1.32292 0,-1.05833 1.058331,-1.05833 1.058331,-1.85208 v -0.52917 c 0,-0.26458 -0.264581,-0.26458 -0.264581,-0.26458 h -0.79375 v 0.79375 h -1.5874995 -1.5875 v -0.79375 z"
       id="path2028-5-5-9"
       inkscape:connector-curvature="0" />
    <path
       style="display:inline;fill:#cd9595;fill-opacity:1;stroke:none;stroke-width:0.26458332px;stroke-linecap:butt;stroke-linejoin:miter;stroke-opacity:1"
       d="m 7.9374876,288.40103 v 0.52917 l 0.5291699,0.26458 0.5291701,-0.26458 v -0.52917 l -0.5291701,-0.26458 z"
       id="path3655-8"
       inkscape:connector-curvature="0" />
    <path
       style="display:inline;fill:#eeb5b5;fill-opacity:1;stroke:none;stroke-width:0.26458332px;stroke-linecap:butt;stroke-linejoin:miter;stroke-opacity:1"
       d="M 8.9958276,288.40103 H 7.9374974 v -1.5875 h 1.0583302 z"
       id="path2084-3"
       inkscape:connector-curvature="0" />
    <path
       style="display:inline;fill:#eeb5b5;fill-opacity:1;stroke:none;stroke-width:0.26458332px;stroke-linecap:butt;stroke-linejoin:miter;stroke-opacity:1"
       d="m 6.0854175,287.07811 -0.79375,2.64584 h 2.1166601 v 2.11666 l -1.3229101,2.38125 h 1.0583299 l 1.0583302,-2.11666 h 0.2645799 0.2645899 l 1.0583307,2.11666 h 1.0583289 l -1.3229099,-2.38125 v -2.11666 h 2.1166599 l -0.79375,-2.64584 -0.79375,0.26459 v 0.26458 l 0.529171,0.52917 v 0.79375 H 8.4666575 6.3499974 v -0.79375 l 0.5291701,-0.52917 v -0.26458 z"
       id="path2086-7"
       inkscape:connector-curvature="0" />
  </g>
</svg>
