<?xml version="1.0" encoding="UTF-8" standalone="no"?>
<!-- Created with Inkscape (http://www.inkscape.org/) -->

<svg
   xmlns:dc="http://purl.org/dc/elements/1.1/"
   xmlns:cc="http://creativecommons.org/ns#"
   xmlns:rdf="http://www.w3.org/1999/02/22-rdf-syntax-ns#"
   xmlns:svg="http://www.w3.org/2000/svg"
   xmlns="http://www.w3.org/2000/svg"
   xmlns:sodipodi="http://sodipodi.sourceforge.net/DTD/sodipodi-0.dtd"
   xmlns:inkscape="http://www.inkscape.org/namespaces/inkscape"
   width="64"
   height="64"
   viewBox="0 0 16.933333 16.933334"
   version="1.1"
   id="svg1401"
   inkscape:version="0.92.5 (2060ec1f9f, 2020-04-08)"
   sodipodi:docname="StatusEffect-Water Res L Icon MHW.svg">
  <defs
     id="defs1395">
    <pattern
       y="0"
       x="0"
       height="6"
       width="6"
       patternUnits="userSpaceOnUse"
       id="EMFhbasepattern" />
    <pattern
       y="0"
       x="0"
       height="6"
       width="6"
       patternUnits="userSpaceOnUse"
       id="EMFhbasepattern-9" />
    <pattern
       y="0"
       x="0"
       height="6"
       width="6"
       patternUnits="userSpaceOnUse"
       id="EMFhbasepattern-4" />
    <pattern
       y="0"
       x="0"
       height="6"
       width="6"
       patternUnits="userSpaceOnUse"
       id="EMFhbasepattern-92" />
    <filter
       inkscape:collect="always"
       style="color-interpolation-filters:sRGB"
       id="filter3007-2"
       x="-0.072499998"
       width="1.145"
       y="-0.05117647"
       height="1.1023529">
      <feGaussianBlur
         inkscape:collect="always"
         stdDeviation="0.725"
         id="feGaussianBlur3009-8" />
    </filter>
    <filter
       inkscape:collect="always"
       style="color-interpolation-filters:sRGB"
       id="filter6342-99"
       x="-0.065714285"
       width="1.1314286"
       y="-0.055199999"
       height="1.1104">
      <feGaussianBlur
         inkscape:collect="always"
         stdDeviation="0.30427086"
         id="feGaussianBlur6344-1" />
    </filter>
  </defs>
  <sodipodi:namedview
     id="base"
     pagecolor="#ffffff"
     bordercolor="#666666"
     borderopacity="1.0"
     inkscape:pageopacity="0.0"
     inkscape:pageshadow="2"
     inkscape:zoom="2.8"
     inkscape:cx="85.580859"
     inkscape:cy="64.277668"
     inkscape:document-units="px"
     inkscape:current-layer="layer1"
     showgrid="false"
     units="px"
     inkscape:window-width="1920"
     inkscape:window-height="1017"
     inkscape:window-x="1912"
     inkscape:window-y="-8"
     inkscape:window-maximized="1" />
  <metadata
     id="metadata1398">
    <rdf:RDF>
      <cc:Work
         rdf:about="">
        <dc:format>image/svg+xml</dc:format>
        <dc:type
           rdf:resource="http://purl.org/dc/dcmitype/StillImage" />
        <dc:title></dc:title>
      </cc:Work>
    </rdf:RDF>
  </metadata>
  <g
     inkscape:label="Layer 1"
     inkscape:groupmode="layer"
     id="layer1"
     transform="translate(0,-280.06665)">
    <path
       style="display:inline;fill:#000000;fill-opacity:1;stroke:#000000;stroke-width:0.26458332;stroke-linecap:butt;stroke-linejoin:miter;stroke-miterlimit:20;stroke-dasharray:none;stroke-opacity:1;filter:url(#filter6342-99)"
       d="m 2.3838956,281.91873 1e-6,9.26042 3.704166,3.96875 h 3.704167 l 3.7041674,-3.96875 -10e-7,-9.26042 z"
       id="path1838-7-2-9"
       inkscape:connector-curvature="0"
       sodipodi:nodetypes="ccccccc" />
    <path
       style="display:inline;fill:#75a5cc;fill-opacity:1;stroke:none;stroke-width:0.26458332px;stroke-linecap:butt;stroke-linejoin:miter;stroke-opacity:1"
       d="m 2.3838956,281.91873 1e-6,9.26041 3.704166,3.96875 h 3.704167 l 3.7041664,-3.96875 v -9.26041 z"
       id="path1838-7-7-7"
       inkscape:connector-curvature="0"
       sodipodi:nodetypes="ccccccc" />
    <path
       style="display:inline;fill:#4f697e;fill-opacity:1;stroke:none;stroke-width:0.26458332px;stroke-linecap:butt;stroke-linejoin:miter;stroke-opacity:1"
       d="m 2.9130626,282.4479 v 8.73124 l 3.175,3.43958 h 3.704167 l 3.1750004,-3.43958 v -8.73124 z m 0.79375,0.79375 H 12.17348 v 7.67291 l -2.6458344,2.91042 h -3.175 l -2.645833,-2.91042 z"
       id="path1856-5-5-0"
       inkscape:connector-curvature="0"
       sodipodi:nodetypes="cccccccccccccc" />
    <path
       style="display:inline;fill:none;fill-opacity:1;stroke:#3d5977;stroke-width:1.05833328;stroke-linecap:butt;stroke-linejoin:miter;stroke-miterlimit:4;stroke-dasharray:none;stroke-opacity:1"
       d="m 7.9401426,284.56456 c -0.239645,0.32483 -0.591374,2.42902 -1.5875,3.43959 -0.996124,1.01056 -1.322917,1.34181 -1.322917,2.38124 0,1.03943 0.695843,1.85209 2.910417,1.85209 2.2145754,0 2.9104174,-0.81266 2.9104174,-1.85209 0,-1.03943 -0.326792,-1.37068 -1.3229174,-2.38124 -0.996125,-1.01057 -1.347854,-3.11476 -1.5875,-3.43959 z"
       id="path1184-5-1-6"
       inkscape:connector-curvature="0"
       sodipodi:nodetypes="ccssssc" />
    <path
       style="display:inline;fill:#5e89ac;fill-opacity:1;stroke:none;stroke-width:0.26458332px;stroke-linecap:butt;stroke-linejoin:miter;stroke-opacity:1"
       d="m 7.9401466,284.56456 c -0.239645,0.32483 -0.591374,2.42902 -1.5875,3.43958 -0.996124,1.01057 -1.322917,1.34182 -1.322917,2.38125 0,1.03943 0.695843,1.85209 2.910417,1.85209 2.2145754,0 2.9104174,-0.81266 2.9104174,-1.85209 0,-1.03943 -0.326792,-1.37068 -1.3229174,-2.38125 -0.996125,-1.01056 -1.347854,-3.11475 -1.5875,-3.43958 z"
       id="path1184-5-10"
       inkscape:connector-curvature="0"
       sodipodi:nodetypes="ccssssc" />
    <path
       style="display:inline;fill:#386594;fill-opacity:1;stroke:none;stroke-width:0.26458332px;stroke-linecap:butt;stroke-linejoin:miter;stroke-opacity:1"
       d="m 6.0880636,289.85623 c 0,1.27602 1.057753,1.5875 1.852083,1.5875 0.79433,0 1.852083,-0.31148 1.852083,-1.5875 -0.219476,0.58697 -1.002891,1.05833 -1.852083,1.05833 -0.849191,0 -1.632607,-0.47136 -1.852083,-1.05833 z"
       id="path1166-2-6"
       inkscape:connector-curvature="0"
       sodipodi:nodetypes="cscsc" />
    <path
       inkscape:connector-curvature="0"
       style="display:inline;fill:#000000;fill-opacity:1;stroke:#000000;stroke-width:0.99999994;stroke-linecap:butt;stroke-linejoin:miter;stroke-miterlimit:20;stroke-dasharray:none;stroke-opacity:1;filter:url(#filter3007-2)"
       d="m 37.760002,18.760011 -12,11 h 5 l 3,5 h 8 l 3,-5 h 5 z m 0,18 -12,11 h 5 l 3,5 h 8 l 3,-5 h 5 z"
       id="path2046-1-15-64-1"
       transform="matrix(0.26458334,0,0,0.26458334,1.6536456,281.18848)" />
    <path
       style="display:inline;fill:#7ac854;fill-opacity:1;stroke:none;stroke-width:0.26458332px;stroke-linecap:butt;stroke-linejoin:miter;stroke-opacity:1"
       d="m 11.644313,286.15207 -3.1750004,2.91042 h 1.322917 l 0.7937504,1.32291 h 2.116667 l 0.79375,-1.32291 h 1.322917 z m 0,4.7625 -3.1750004,2.91042 h 1.322917 l 0.7937504,1.32291 h 2.116667 l 0.79375,-1.32291 h 1.322917 z"
       id="path2046-1-15-4"
       inkscape:connector-curvature="0" />
  </g>
</svg>
