<?xml version="1.0" encoding="UTF-8" standalone="no"?>
<!-- Created with Inkscape (http://www.inkscape.org/) -->

<svg
   xmlns:dc="http://purl.org/dc/elements/1.1/"
   xmlns:cc="http://creativecommons.org/ns#"
   xmlns:rdf="http://www.w3.org/1999/02/22-rdf-syntax-ns#"
   xmlns:svg="http://www.w3.org/2000/svg"
   xmlns="http://www.w3.org/2000/svg"
   xmlns:sodipodi="http://sodipodi.sourceforge.net/DTD/sodipodi-0.dtd"
   xmlns:inkscape="http://www.inkscape.org/namespaces/inkscape"
   width="64"
   height="64"
   viewBox="0 0 16.933333 16.933334"
   version="1.1"
   id="svg1401"
   inkscape:version="0.92.5 (2060ec1f9f, 2020-04-08)"
   sodipodi:docname="StatusEffect-Natural Healing Up MHRise.svg">
  <defs
     id="defs1395">
    <pattern
       y="0"
       x="0"
       height="6"
       width="6"
       patternUnits="userSpaceOnUse"
       id="EMFhbasepattern" />
    <pattern
       y="0"
       x="0"
       height="6"
       width="6"
       patternUnits="userSpaceOnUse"
       id="EMFhbasepattern-9" />
    <pattern
       y="0"
       x="0"
       height="6"
       width="6"
       patternUnits="userSpaceOnUse"
       id="EMFhbasepattern-4" />
    <pattern
       y="0"
       x="0"
       height="6"
       width="6"
       patternUnits="userSpaceOnUse"
       id="EMFhbasepattern-92" />
    <pattern
       y="0"
       x="0"
       height="6"
       width="6"
       patternUnits="userSpaceOnUse"
       id="EMFhbasepattern-5" />
    <filter
       inkscape:collect="always"
       style="color-interpolation-filters:sRGB"
       id="filter5232"
       x="-0.075882345"
       width="1.1517648"
       y="-0.049615391"
       height="1.0992308">
      <feGaussianBlur
         inkscape:collect="always"
         stdDeviation="0.28442704"
         id="feGaussianBlur5234" />
    </filter>
  </defs>
  <sodipodi:namedview
     id="base"
     pagecolor="#ffffff"
     bordercolor="#666666"
     borderopacity="1.0"
     inkscape:pageopacity="0.0"
     inkscape:pageshadow="2"
     inkscape:zoom="3.959798"
     inkscape:cx="58.764945"
     inkscape:cy="35.767966"
     inkscape:document-units="px"
     inkscape:current-layer="layer1"
     showgrid="false"
     units="px"
     inkscape:window-width="1920"
     inkscape:window-height="1017"
     inkscape:window-x="1912"
     inkscape:window-y="-8"
     inkscape:window-maximized="1" />
  <metadata
     id="metadata1398">
    <rdf:RDF>
      <cc:Work
         rdf:about="">
        <dc:format>image/svg+xml</dc:format>
        <dc:type
           rdf:resource="http://purl.org/dc/dcmitype/StillImage" />
        <dc:title></dc:title>
      </cc:Work>
    </rdf:RDF>
  </metadata>
  <g
     inkscape:label="Layer 1"
     inkscape:groupmode="layer"
     id="layer1"
     transform="translate(0,-280.06665)">
    <path
       style="display:inline;fill:#000000;fill-opacity:1;stroke:#000000;stroke-width:0.26458332;stroke-linecap:butt;stroke-linejoin:miter;stroke-miterlimit:4;stroke-dasharray:none;stroke-opacity:1;filter:url(#filter5232)"
       d="m 6.614584,281.65415 v 0.79375 H 6.0854169 c 0,0 -0.529167,0 -0.529167,0.52916 v 1.05834 c 0,0 0,0.79376 0.79375,0.79376 0,0 0.5291671,0 0.5291671,0.52916 v 0.79375 c 0,0 0,0.52918 -0.5291671,0.52917 h -0.529166 c 0,0 -1.852084,-0.26458 -1.852084,2.11667 v 3.175 c 0,1.5875 1.852084,3.43958 3.1750001,3.43958 0.881944,0 1.76389,0 2.645834,0 1.322916,0 3.174999,-1.85208 3.174999,-3.43958 v -3.175 c 0,-2.38125 -1.852083,-2.11667 -1.852083,-2.11667 h -0.529166 c -0.529167,10e-6 -0.529167,-0.52917 -0.529167,-0.52917 v -0.79375 c 0,-0.52916 0.529167,-0.52916 0.529167,-0.52916 0.793749,0 0.793749,-0.79376 0.793749,-0.79376 v -1.05834 c 0,-0.52916 -0.529166,-0.52916 -0.529166,-0.52916 H 10.31875 v -0.79375 c -1.234723,0 -2.469443,0 -3.704166,0 z"
       id="path3306-2"
       inkscape:connector-curvature="0"
       sodipodi:nodetypes="cccsccscccssccsscccsccscccc" />
    <path
       style="display:inline;fill:#00d600;fill-opacity:1;stroke:none;stroke-width:0.26458332px;stroke-linecap:butt;stroke-linejoin:miter;stroke-opacity:1"
       d="m 6.6145827,281.65415 v 0.79375 H 6.085416 c 0,0 -0.5291667,10e-6 -0.5291667,0.52917 v 1.05833 c 0,0 0,0.79375 0.7937501,0.79375 0,0 0.5291666,10e-6 0.5291666,0.52917 v 0.79375 c 0,0 0,0.52918 -0.5291666,0.52917 H 5.8208326 c 0,0 -1.8520834,-0.26459 -1.8520834,2.11666 v 3.175 c 0,1.5875 1.8520834,3.43959 3.1750002,3.43959 0.8819435,0 1.7638898,0 2.6458333,0 1.3229163,0 3.1750003,-1.85209 3.1750003,-3.43959 v -3.175 c 0,-2.38125 -1.852084,-2.11666 -1.852084,-2.11666 h -0.529166 c -0.529167,10e-6 -0.529167,-0.52917 -0.529167,-0.52917 v -0.79375 c 0,-0.52916 0.529167,-0.52917 0.529167,-0.52917 0.79375,0 0.79375,-0.79375 0.79375,-0.79375 v -1.05833 c 0,-0.52916 -0.529167,-0.52917 -0.529167,-0.52917 h -0.529167 v -0.79375 c -1.2347227,0 -2.4694432,0 -3.7041663,0 z"
       id="path3306"
       inkscape:connector-curvature="0"
       sodipodi:nodetypes="cccsccscccssccsscccsccscccc" />
    <path
       style="display:inline;fill:#20000e;fill-opacity:1;stroke:none;stroke-width:0.26458332px;stroke-linecap:butt;stroke-linejoin:miter;stroke-opacity:1"
       d="m 7.1437496,282.97706 v -0.79375 h 2.6458331 v 0.79375 l 0.2645843,0.26459 v 0.79376 H 6.8791655 v -0.79376 z"
       id="path3304"
       inkscape:connector-curvature="0" />
    <path
       style="display:inline;fill:#e18b1e;fill-opacity:1;stroke:none;stroke-width:0.26458332px;stroke-linecap:butt;stroke-linejoin:miter;stroke-opacity:1"
       d="m 6.3499986,282.97706 c 0,0 -0.2645831,0 -0.2645831,0.26459 v 0.26458 c 0,0 0,0.79375 0.79375,0.79375 0,0 0.5291662,0 0.5291662,0.52918 v 1.05832 c 0,0 0,1.32293 -1.3229162,1.32293 -1.322917,0 -1.5875,1.05832 -1.5875,1.32291 v 3.43959 c 0,0.79375 1.5875,2.91041 2.6458331,2.91041 0.8819441,0 1.763889,0 2.6458331,0 1.0583353,0 2.6458353,-2.11666 2.6458353,-2.91041 v -3.43959 c 0,-0.26459 -0.26458,-1.32291 -1.5875,-1.32291 -1.3229184,0 -1.3229184,-1.32293 -1.3229184,-1.32293 v -1.05832 c 0,-0.52918 0.5291684,-0.52918 0.5291684,-0.52918 0.79375,0 0.79375,-0.79375 0.79375,-0.79375 v -0.26458 c 0,-0.26459 -0.26458,-0.26459 -0.26458,-0.26459 H 9.7895827 v 0.79376 c -0.8819451,0 -1.7638892,0 -2.6458331,0 v -0.79376 z"
       id="path3271"
       inkscape:connector-curvature="0"
       sodipodi:nodetypes="csccscsssccssscsccscccccc" />
    <path
       style="display:inline;fill:#088e00;fill-opacity:1;stroke:#000000;stroke-width:0.52916664;stroke-linecap:butt;stroke-linejoin:miter;stroke-miterlimit:4;stroke-dasharray:none;stroke-opacity:1"
       d="m 7.1437496,293.03123 v -2.11666 H 5.5562495 v -0.52917 l 2.6458332,-2.64583 h 0.529167 l 2.6458373,2.64583 v 0.52917 H 9.7895827 v 2.11666 z"
       id="path3025-0"
       inkscape:connector-curvature="0" />
  </g>
</svg>
