<?xml version="1.0" encoding="UTF-8" standalone="no"?>
<!-- Created with Inkscape (http://www.inkscape.org/) -->

<svg
   xmlns:dc="http://purl.org/dc/elements/1.1/"
   xmlns:cc="http://creativecommons.org/ns#"
   xmlns:rdf="http://www.w3.org/1999/02/22-rdf-syntax-ns#"
   xmlns:svg="http://www.w3.org/2000/svg"
   xmlns="http://www.w3.org/2000/svg"
   xmlns:sodipodi="http://sodipodi.sourceforge.net/DTD/sodipodi-0.dtd"
   xmlns:inkscape="http://www.inkscape.org/namespaces/inkscape"
   width="64"
   height="64"
   viewBox="0 0 16.933333 16.933334"
   version="1.1"
   id="svg1401"
   inkscape:version="0.92.5 (2060ec1f9f, 2020-04-08)"
   sodipodi:docname="StatusEffect-Earplugs L MHRise.svg">
  <defs
     id="defs1395">
    <pattern
       y="0"
       x="0"
       height="6"
       width="6"
       patternUnits="userSpaceOnUse"
       id="EMFhbasepattern" />
    <pattern
       y="0"
       x="0"
       height="6"
       width="6"
       patternUnits="userSpaceOnUse"
       id="EMFhbasepattern-9" />
    <pattern
       y="0"
       x="0"
       height="6"
       width="6"
       patternUnits="userSpaceOnUse"
       id="EMFhbasepattern-4" />
    <pattern
       y="0"
       x="0"
       height="6"
       width="6"
       patternUnits="userSpaceOnUse"
       id="EMFhbasepattern-92" />
    <pattern
       y="0"
       x="0"
       height="6"
       width="6"
       patternUnits="userSpaceOnUse"
       id="EMFhbasepattern-5" />
    <pattern
       y="0"
       x="0"
       height="6"
       width="6"
       patternUnits="userSpaceOnUse"
       id="EMFhbasepattern-2" />
    <pattern
       y="0"
       x="0"
       height="6"
       width="6"
       patternUnits="userSpaceOnUse"
       id="EMFhbasepattern-7" />
    <filter
       inkscape:collect="always"
       style="color-interpolation-filters:sRGB"
       id="filter2785"
       x="-0.055714279"
       width="1.1114286"
       y="-0.065000013"
       height="1.13">
      <feGaussianBlur
         inkscape:collect="always"
         stdDeviation="0.34395839"
         id="feGaussianBlur2787" />
    </filter>
  </defs>
  <sodipodi:namedview
     id="base"
     pagecolor="#ffffff"
     bordercolor="#666666"
     borderopacity="1.0"
     inkscape:pageopacity="0.0"
     inkscape:pageshadow="2"
     inkscape:zoom="3.959798"
     inkscape:cx="62.143852"
     inkscape:cy="52.918838"
     inkscape:document-units="px"
     inkscape:current-layer="layer1"
     showgrid="false"
     units="px"
     inkscape:window-width="1920"
     inkscape:window-height="1017"
     inkscape:window-x="1912"
     inkscape:window-y="-8"
     inkscape:window-maximized="1" />
  <metadata
     id="metadata1398">
    <rdf:RDF>
      <cc:Work
         rdf:about="">
        <dc:format>image/svg+xml</dc:format>
        <dc:type
           rdf:resource="http://purl.org/dc/dcmitype/StillImage" />
        <dc:title></dc:title>
      </cc:Work>
    </rdf:RDF>
  </metadata>
  <g
     inkscape:label="Layer 1"
     inkscape:groupmode="layer"
     id="layer1"
     transform="translate(0,-280.06665)">
    <path
       style="display:inline;fill:#000000;fill-opacity:1;stroke:#000000;stroke-width:0.26458332px;stroke-linecap:butt;stroke-linejoin:miter;stroke-opacity:1;filter:url(#filter2785)"
       d="M 12.170831,282.18332 H 4.7624977 v 1.05833 h -0.79375 l -2.910417,2.91042 v 8.73125 h 3.175 v -1.05834 l 1.058333,-1.05833 h 6.3500003 l 1.058333,1.05833 v 1.05834 h 3.175005 v -8.73125 l -2.910421,-2.91042 h -0.79375 z"
       id="path6643-72"
       inkscape:connector-curvature="0"
       sodipodi:nodetypes="ccccccccccccccccc" />
    <path
       style="display:inline;fill:#00d600;fill-opacity:1;stroke:none;stroke-width:0.26458332px;stroke-linecap:butt;stroke-linejoin:miter;stroke-opacity:1"
       d="M 12.170831,282.18332 H 4.7624979 v 1.05833 h -0.79375 l -2.910417,2.91042 v 8.73125 H 4.233331 v -1.05834 l 1.0583331,-1.05833 h 6.3499999 l 1.058334,1.05833 v 1.05834 h 3.175005 v -8.73125 l -2.910422,-2.91042 h -0.79375 z"
       id="path6643"
       inkscape:connector-curvature="0"
       sodipodi:nodetypes="ccccccccccccccccc" />
    <path
       style="display:inline;fill:#000000;stroke:none;stroke-width:0.26458332px;stroke-linecap:butt;stroke-linejoin:miter;stroke-opacity:1"
       d="M 4.7624979,283.77082 H 4.233331 l -2.6458351,2.64583 v 7.9375 h 2.1166679 v -0.79375 l 1.0583331,-1.05833 z"
       id="path6626-5"
       inkscape:connector-curvature="0"
       sodipodi:nodetypes="cccccccc" />
    <path
       style="display:inline;fill:#000000;stroke:none;stroke-width:0.26458332px;stroke-linecap:butt;stroke-linejoin:miter;stroke-opacity:1"
       d="m 12.170831,283.77082 h 0.529167 l 2.645834,2.64583 v 7.9375 h -2.116668 v -0.79375 l -1.058333,-1.05833 z"
       id="path6626"
       inkscape:connector-curvature="0"
       sodipodi:nodetypes="cccccccc" />
    <path
       style="display:inline;fill:#000000;stroke:none;stroke-width:0.26458332px;stroke-linecap:butt;stroke-linejoin:miter;stroke-opacity:1"
       d="m 5.2916641,282.71248 h 6.3499999 v 9.525 H 5.2916641 Z"
       id="path6624"
       inkscape:connector-curvature="0" />
    <path
       style="display:inline;fill:#9f7359;fill-opacity:1;stroke:none;stroke-width:0.26458332px;stroke-linecap:butt;stroke-linejoin:miter;stroke-opacity:1"
       d="m 5.820831,284.82915 v -1.5875 h 5.291666 v 1.5875 H 9.5249969 l 1.1e-6,0.52917 h 1.587499 v 6.35 H 5.820831 v -6.35 h 1.5875 v 3.70416 h 1.5875001 v -0.52916 H 8.4666641 L 7.937498,288.00415 v -3.175 z"
       id="path6605"
       inkscape:connector-curvature="0"
       sodipodi:nodetypes="cccccccccccccccccc" />
    <path
       style="display:inline;fill:#9f7359;fill-opacity:1;stroke:none;stroke-width:0.26458332px;stroke-linecap:butt;stroke-linejoin:miter;stroke-opacity:1"
       d="m 4.233331,289.59165 -1.5875001,1.5875 v -1.32292 l 1.5875001,-1.5875 v -0.79375 l -1.5875001,1.5875 v -0.79375 l 1.5875001,-1.5875 v -2.11666 l -2.1166671,2.11666 v 7.14375 h 1.058334 v -0.52916 l 1.0583331,-1.05834 z"
       id="path6607"
       inkscape:connector-curvature="0"
       sodipodi:nodetypes="ccccccccccccccc" />
    <path
       style="display:inline;fill:#9f7359;fill-opacity:1;stroke:none;stroke-width:0.26458332px;stroke-linecap:butt;stroke-linejoin:miter;stroke-opacity:1"
       d="m 12.699998,289.59165 1.5875,1.5875 v -1.32292 l -1.5875,-1.5875 v -0.79375 l 1.5875,1.5875 v -0.79375 l -1.5875,-1.5875 v -2.11666 l 2.116668,2.11666 v 7.14375 h -1.058335 v -0.52916 l -1.058333,-1.05834 z"
       id="path6607-6"
       inkscape:connector-curvature="0"
       sodipodi:nodetypes="ccccccccccccccc" />
  </g>
</svg>
