<?xml version="1.0" encoding="UTF-8" standalone="no"?>
<!-- Created with Inkscape (http://www.inkscape.org/) -->

<svg
   xmlns:dc="http://purl.org/dc/elements/1.1/"
   xmlns:cc="http://creativecommons.org/ns#"
   xmlns:rdf="http://www.w3.org/1999/02/22-rdf-syntax-ns#"
   xmlns:svg="http://www.w3.org/2000/svg"
   xmlns="http://www.w3.org/2000/svg"
   xmlns:sodipodi="http://sodipodi.sourceforge.net/DTD/sodipodi-0.dtd"
   xmlns:inkscape="http://www.inkscape.org/namespaces/inkscape"
   width="64"
   height="64"
   viewBox="0 0 16.933333 16.933334"
   version="1.1"
   id="svg1401"
   inkscape:version="0.92.5 (2060ec1f9f, 2020-04-08)"
   sodipodi:docname="StatusEffect-Wind Res L Icon MHW.svg">
  <defs
     id="defs1395">
    <pattern
       y="0"
       x="0"
       height="6"
       width="6"
       patternUnits="userSpaceOnUse"
       id="EMFhbasepattern" />
    <pattern
       y="0"
       x="0"
       height="6"
       width="6"
       patternUnits="userSpaceOnUse"
       id="EMFhbasepattern-9" />
    <filter
       inkscape:collect="always"
       style="color-interpolation-filters:sRGB"
       id="filter6812"
       x="-0.068461537"
       width="1.1369231"
       y="-0.053399999"
       height="1.1068">
      <feGaussianBlur
         inkscape:collect="always"
         stdDeviation="1.1125"
         id="feGaussianBlur6814" />
    </filter>
  </defs>
  <sodipodi:namedview
     id="base"
     pagecolor="#ffffff"
     bordercolor="#666666"
     borderopacity="1.0"
     inkscape:pageopacity="0.0"
     inkscape:pageshadow="2"
     inkscape:zoom="3.959798"
     inkscape:cx="43.880863"
     inkscape:cy="33.783103"
     inkscape:document-units="px"
     inkscape:current-layer="layer1"
     showgrid="false"
     units="px"
     inkscape:window-width="1920"
     inkscape:window-height="1017"
     inkscape:window-x="1912"
     inkscape:window-y="-8"
     inkscape:window-maximized="1" />
  <metadata
     id="metadata1398">
    <rdf:RDF>
      <cc:Work
         rdf:about="">
        <dc:format>image/svg+xml</dc:format>
        <dc:type
           rdf:resource="http://purl.org/dc/dcmitype/StillImage" />
        <dc:title></dc:title>
      </cc:Work>
    </rdf:RDF>
  </metadata>
  <g
     inkscape:label="Layer 1"
     inkscape:groupmode="layer"
     id="layer1"
     transform="translate(0,-280.06665)">
    <path
       style="display:inline;fill:#000000;fill-opacity:1;stroke:#000000;stroke-width:0.99999994;stroke-linecap:butt;stroke-linejoin:miter;stroke-miterlimit:20;stroke-dasharray:none;stroke-opacity:1;filter:url(#filter6812)"
       d="m 2.67,2.6699999 v 4 h 5 c 6.99999,0 12.99999,19.0000001 18,19.0000001 h 11 c 5,0 5,-5 5,-5 v -10 c -1e-5,-4.0000001 -4,-4.0000001 -4,-4.0000001 h -9 c -3.00001,0 -3,3 -3,3 V 14.67 c 0,4 4,4 4,4 h 2 c 3,0 3,-3 3,-3 v -2 c 0,-1 -1,-1 -1,-1 -1e-5,0 -1,0 -1,1 0,1 -1,1 -1,1 h -1 c -1,0 -1,-1 -1,-1 v -2 c -1e-5,-1 1,-1 1,-1 h 5 c 2,0 2,2 2,2 v 7 c 0,2 -2,2 -2,2 h -8 c -1.6509,0 -4.65401,-5.82508 -8,-11 -2.73436,-4.2289501 -5.75149,-8.0000001 -8,-8.0000001 z M 2.67,29.67 v 4 h 5 c 6.99999,0 12.99999,19 18,19 h 11 c 5,0 5,-5 5,-5 v -10 c -1e-5,-4 -4,-4 -4,-4 h -9 c -3.00001,0 -3,3 -3,3 v 5 c 0,4 4,4 4,4 h 2 c 3,0 3,-3 3,-3 v -2 c 0,-1 -1,-1 -1,-1 0,0 -1,0 -1,1 0,1 -1,1 -1,1 h -1 c -1.00001,0 -1,-1 -1,-1 v -2 c 0,-1 1,-1 1,-1 h 5 c 2,0 2,2 2,2 v 7 c 0,2 -2,2 -2,2 h -8 c -1.6509,0 -4.65401,-5.82508 -8,-11 -2.73436,-4.22895 -5.75149,-8 -8,-8 z"
       id="path3439-1"
       inkscape:connector-curvature="0"
       transform="matrix(0.26458334,0,0,0.26458334,2.6008541,281.2123)" />
    <path
       style="display:inline;fill:#84ad6b;fill-opacity:1;stroke:none;stroke-width:0.26458332px;stroke-linecap:butt;stroke-linejoin:miter;stroke-opacity:1"
       d="m 3.3072916,281.91874 h 2.38125 c 0.5949202,0 1.3932022,0.99775 2.1166672,2.11666 0.8852948,1.3692 1.679868,2.91042 2.1166659,2.91042 h 2.1166673 c 0,0 0.529167,0 0.529167,-0.52917 v -1.85208 c 0,0 0,-0.52917 -0.529167,-0.52917 h -1.322917 c 0,0 -0.264583,0 -0.264583,0.26459 v 0.52916 c 0,0 0,0.26459 0.264583,0.26459 h 0.264584 c 0,0 0.264583,0 0.264583,-0.26459 0,-0.26458 0.264583,-0.26458 0.264583,-0.26458 0,0 0.264584,0 0.264584,0.26458 v 0.52917 c 0,0 0,0.79375 -0.79375,0.79375 h -0.529167 c 0,0 -1.0583331,0 -1.0583331,-1.05833 v -1.32292 c 0,0 0,-0.79375 0.7937501,-0.79375 h 2.38125 c 0,0 1.058333,0 1.058333,1.05833 v 2.64584 c 0,0 0,1.32291 -1.322917,1.32291 H 9.3927089 c -1.3229172,0 -2.9104173,-5.02708 -4.7625002,-5.02708 H 3.3072916 Z"
       id="path3439"
       inkscape:connector-curvature="0"
       sodipodi:nodetypes="cssscscscscscscscscscscscssscc" />
    <path
       style="display:inline;fill:#84ad6b;fill-opacity:1;stroke:none;stroke-width:0.26458332px;stroke-linecap:butt;stroke-linejoin:miter;stroke-opacity:1"
       d="m 3.3072916,289.06249 h 2.38125 c 0.5949202,0 1.3932022,0.99775 2.1166662,2.11666 0.885295,1.3692 1.679869,2.91042 2.1166669,2.91042 h 2.1166663 c 0,0 0.529168,0 0.529168,-0.52917 v -1.85208 c 0,0 0,-0.52917 -0.529168,-0.52917 h -1.322916 c 0,0 -0.264584,0 -0.264584,0.26459 v 0.52916 c 0,0 0,0.26459 0.264584,0.26459 h 0.264584 c 0,0 0.264582,0 0.264582,-0.26459 0,-0.26458 0.264584,-0.26458 0.264584,-0.26458 0,0 0.264584,0 0.264584,0.26458 v 0.52917 c 0,0 0,0.79375 -0.79375,0.79375 h -0.529168 c 0,0 -1.0583321,0 -1.0583321,-1.05833 v -1.32292 c 0,0 0,-0.79375 0.7937501,-0.79375 h 2.38125 c 0,0 1.058333,0 1.058333,1.05833 v 2.64584 c 0,0 0,1.32291 -1.322917,1.32291 H 9.3927089 c -1.3229183,0 -2.9104173,-5.02708 -4.7625002,-5.02708 H 3.3072916 Z"
       id="path3439-7"
       inkscape:connector-curvature="0"
       sodipodi:nodetypes="cssscscscscscscscscscscscssscc" />
  </g>
</svg>
