<?xml version="1.0" encoding="UTF-8" standalone="no"?>
<!-- Created with Inkscape (http://www.inkscape.org/) -->

<svg
   xmlns:dc="http://purl.org/dc/elements/1.1/"
   xmlns:cc="http://creativecommons.org/ns#"
   xmlns:rdf="http://www.w3.org/1999/02/22-rdf-syntax-ns#"
   xmlns:svg="http://www.w3.org/2000/svg"
   xmlns="http://www.w3.org/2000/svg"
   xmlns:sodipodi="http://sodipodi.sourceforge.net/DTD/sodipodi-0.dtd"
   xmlns:inkscape="http://www.inkscape.org/namespaces/inkscape"
   width="64"
   height="64"
   viewBox="0 0 16.933333 16.933334"
   version="1.1"
   id="svg1401"
   inkscape:version="0.92.5 (2060ec1f9f, 2020-04-08)"
   sodipodi:docname="StatusEffect-Ice Res L Icon MHW.svg">
  <defs
     id="defs1395">
    <pattern
       y="0"
       x="0"
       height="6"
       width="6"
       patternUnits="userSpaceOnUse"
       id="EMFhbasepattern" />
    <pattern
       y="0"
       x="0"
       height="6"
       width="6"
       patternUnits="userSpaceOnUse"
       id="EMFhbasepattern-9" />
    <pattern
       y="0"
       x="0"
       height="6"
       width="6"
       patternUnits="userSpaceOnUse"
       id="EMFhbasepattern-4" />
    <pattern
       y="0"
       x="0"
       height="6"
       width="6"
       patternUnits="userSpaceOnUse"
       id="EMFhbasepattern-92" />
    <filter
       inkscape:collect="always"
       style="color-interpolation-filters:sRGB"
       id="filter3007-8"
       x="-0.072499998"
       width="1.145"
       y="-0.05117647"
       height="1.1023529">
      <feGaussianBlur
         inkscape:collect="always"
         stdDeviation="0.725"
         id="feGaussianBlur3009-5" />
    </filter>
    <filter
       inkscape:collect="always"
       style="color-interpolation-filters:sRGB"
       id="filter6342-7"
       x="-0.065714285"
       width="1.1314286"
       y="-0.055199999"
       height="1.1104">
      <feGaussianBlur
         inkscape:collect="always"
         stdDeviation="0.30427086"
         id="feGaussianBlur6344-4" />
    </filter>
  </defs>
  <sodipodi:namedview
     id="base"
     pagecolor="#ffffff"
     bordercolor="#666666"
     borderopacity="1.0"
     inkscape:pageopacity="0.0"
     inkscape:pageshadow="2"
     inkscape:zoom="2.8"
     inkscape:cx="59.509431"
     inkscape:cy="97.849096"
     inkscape:document-units="px"
     inkscape:current-layer="layer1"
     showgrid="false"
     units="px"
     inkscape:window-width="1920"
     inkscape:window-height="1017"
     inkscape:window-x="1912"
     inkscape:window-y="-8"
     inkscape:window-maximized="1" />
  <metadata
     id="metadata1398">
    <rdf:RDF>
      <cc:Work
         rdf:about="">
        <dc:format>image/svg+xml</dc:format>
        <dc:type
           rdf:resource="http://purl.org/dc/dcmitype/StillImage" />
        <dc:title></dc:title>
      </cc:Work>
    </rdf:RDF>
  </metadata>
  <g
     inkscape:label="Layer 1"
     inkscape:groupmode="layer"
     id="layer1"
     transform="translate(0,-280.06665)">
    <path
       style="display:inline;fill:#000000;fill-opacity:1;stroke:#000000;stroke-width:0.26458332;stroke-linecap:butt;stroke-linejoin:miter;stroke-miterlimit:20;stroke-dasharray:none;stroke-opacity:1;filter:url(#filter6342-7)"
       d="m 2.3838958,281.91873 1e-6,9.26042 3.7041661,3.96875 H 9.79223 l 3.704167,-3.96875 -10e-7,-9.26042 z"
       id="path1838-7-2-8"
       inkscape:connector-curvature="0"
       sodipodi:nodetypes="ccccccc" />
    <path
       style="display:inline;fill:#9ccece;fill-opacity:1;stroke:none;stroke-width:0.26458332px;stroke-linecap:butt;stroke-linejoin:miter;stroke-opacity:1"
       d="m 2.3838958,281.91873 2e-6,9.26041 3.7041642,3.96875 h 3.7041669 l 3.7041691,-3.96875 -3e-6,-9.26041 z"
       id="path1838-7-1-4"
       inkscape:connector-curvature="0"
       sodipodi:nodetypes="ccccccc" />
    <path
       style="display:inline;fill:#668483;fill-opacity:1;stroke:none;stroke-width:0.26458332px;stroke-linecap:butt;stroke-linejoin:miter;stroke-opacity:1"
       d="m 2.9130619,282.4479 v 8.73124 l 3.1750001,3.43958 h 3.7041669 l 3.1750001,-3.43958 v -8.73124 z m 0.79375,0.79375 h 8.4666671 v 7.67291 l -2.6458339,2.91042 H 6.3526458 l -2.6458339,-2.91042 z"
       id="path1856-5-9-2"
       inkscape:connector-curvature="0"
       sodipodi:nodetypes="cccccccccccccc" />
    <path
       style="display:inline;fill:none;fill-opacity:1;stroke:#507070;stroke-width:1.05833328;stroke-linecap:butt;stroke-linejoin:miter;stroke-miterlimit:4;stroke-dasharray:none;stroke-opacity:1"
       d="m 6.881812,283.77081 -1.8520831,1.85208 v 2.91042 l 1.8520831,1.85208 h 0.2645839 l 1.852083,-1.85208 v -2.91042 l -1.852083,-1.85208 z m 2.9104169,5.02708 -1.3229169,1.32292 v 1.85208 l 1.3229169,1.32292 h 0.2645831 l 1.322917,-1.32292 v -1.85208 l -1.322917,-1.32292 z"
       id="path1210-6-4-4"
       inkscape:connector-curvature="0" />
    <path
       style="display:inline;fill:#75b3b4;fill-opacity:1;stroke:none;stroke-width:0.26458332px;stroke-linecap:butt;stroke-linejoin:miter;stroke-opacity:1"
       d="m 5.0297289,288.53331 1.8520831,1.85208 h 0.2645839 l 1.852083,-1.85208 v -2.91042 l -1.852083,-1.85208 H 6.881812 l -1.8520831,1.85208 z"
       id="path1210-6-9"
       inkscape:connector-curvature="0"
       sodipodi:nodetypes="ccccccccc" />
    <path
       style="display:inline;fill:#3b716f;fill-opacity:1;stroke:none;stroke-width:0.26458332px;stroke-linecap:butt;stroke-linejoin:miter;stroke-opacity:1"
       d="m 6.881812,285.07816 -1.0583331,1.0739 v 1.85209 l 1.0583331,1.05833 h 0.2645839 l 1.058333,-1.05833 v -1.85209 l -1.058333,-1.05833 z m 0,0.80932 h 0.2645839 l 0.5291661,0.52917 v 1.32291 l -0.5291661,0.52917 H 6.881812 l -0.5291662,-0.52917 2.2e-6,-1.32291 z"
       id="path1206-6-4"
       inkscape:connector-curvature="0"
       sodipodi:nodetypes="cccccccccccccccccc" />
    <path
       style="display:inline;fill:#75b3b4;fill-opacity:1;stroke:none;stroke-width:0.26458332px;stroke-linecap:butt;stroke-linejoin:miter;stroke-opacity:1"
       d="m 9.7922289,288.7979 h 0.2645831 l 1.322917,1.32291 v 1.85208 l -1.322917,1.32292 H 9.7922289 L 8.469312,291.97289 v -1.85208 z"
       id="path1213-3-9"
       inkscape:connector-curvature="0"
       sodipodi:nodetypes="ccccccccc" />
    <path
       style="display:inline;fill:#3b716f;fill-opacity:1;stroke:none;stroke-width:0.26458332px;stroke-linecap:butt;stroke-linejoin:miter;stroke-opacity:1"
       d="m 9.7922289,290.12081 h 0.2645831 l 0.529167,0.52917 v 0.79375 l -0.529167,0.52916 H 9.7922289 L 9.263062,291.44373 v -0.79375 z"
       id="path1215-9-7"
       inkscape:connector-curvature="0"
       sodipodi:nodetypes="ccccccccc" />
    <path
       inkscape:connector-curvature="0"
       style="display:inline;fill:#000000;fill-opacity:1;stroke:#000000;stroke-width:0.99999994;stroke-linecap:butt;stroke-linejoin:miter;stroke-miterlimit:20;stroke-dasharray:none;stroke-opacity:1;filter:url(#filter3007-8)"
       d="m 37.76,18.760011 -12,11 h 5 l 3,5 h 8 l 3,-5 h 5 z m 0,18 -12,11 h 5 l 3,5 h 8 l 3,-5 h 5 z"
       id="path2046-1-15-64-12"
       transform="matrix(0.26458334,0,0,0.26458334,1.6536458,281.18848)" />
    <path
       style="display:inline;fill:#7ac854;fill-opacity:1;stroke:none;stroke-width:0.26458332px;stroke-linecap:butt;stroke-linejoin:miter;stroke-opacity:1"
       d="m 11.644313,286.15207 -3.1750005,2.91042 h 1.3229167 l 0.7937498,1.32291 h 2.116667 l 0.79375,-1.32291 h 1.322917 z m 0,4.7625 -3.1750005,2.91042 h 1.3229167 l 0.7937498,1.32291 h 2.116667 l 0.79375,-1.32291 h 1.322917 z"
       id="path2046-1-15-4-6"
       inkscape:connector-curvature="0" />
  </g>
</svg>
