<?xml version="1.0" encoding="UTF-8" standalone="no"?>
<!-- Created with Inkscape (http://www.inkscape.org/) -->

<svg
   xmlns:dc="http://purl.org/dc/elements/1.1/"
   xmlns:cc="http://creativecommons.org/ns#"
   xmlns:rdf="http://www.w3.org/1999/02/22-rdf-syntax-ns#"
   xmlns:svg="http://www.w3.org/2000/svg"
   xmlns="http://www.w3.org/2000/svg"
   xmlns:sodipodi="http://sodipodi.sourceforge.net/DTD/sodipodi-0.dtd"
   xmlns:inkscape="http://www.inkscape.org/namespaces/inkscape"
   width="64"
   height="64"
   viewBox="0 0 16.933333 16.933334"
   version="1.1"
   id="svg1401"
   inkscape:version="0.92.5 (2060ec1f9f, 2020-04-08)"
   sodipodi:docname="StatusEffect-Earplugs S Icon MHW.svg">
  <defs
     id="defs1395">
    <pattern
       y="0"
       x="0"
       height="6"
       width="6"
       patternUnits="userSpaceOnUse"
       id="EMFhbasepattern" />
    <pattern
       y="0"
       x="0"
       height="6"
       width="6"
       patternUnits="userSpaceOnUse"
       id="EMFhbasepattern-9" />
    <pattern
       y="0"
       x="0"
       height="6"
       width="6"
       patternUnits="userSpaceOnUse"
       id="EMFhbasepattern-4" />
    <filter
       inkscape:collect="always"
       style="color-interpolation-filters:sRGB"
       id="filter7009"
       x="-0.059387755"
       width="1.1187755"
       y="-0.060625002"
       height="1.12125">
      <feGaussianBlur
         inkscape:collect="always"
         stdDeviation="1.2125"
         id="feGaussianBlur7011" />
    </filter>
  </defs>
  <sodipodi:namedview
     id="base"
     pagecolor="#ffffff"
     bordercolor="#666666"
     borderopacity="1.0"
     inkscape:pageopacity="0.0"
     inkscape:pageshadow="2"
     inkscape:zoom="5.6"
     inkscape:cx="62.675821"
     inkscape:cy="39.109214"
     inkscape:document-units="px"
     inkscape:current-layer="layer1"
     showgrid="false"
     units="px"
     inkscape:window-width="1920"
     inkscape:window-height="1017"
     inkscape:window-x="1912"
     inkscape:window-y="-8"
     inkscape:window-maximized="1" />
  <metadata
     id="metadata1398">
    <rdf:RDF>
      <cc:Work
         rdf:about="">
        <dc:format>image/svg+xml</dc:format>
        <dc:type
           rdf:resource="http://purl.org/dc/dcmitype/StillImage" />
        <dc:title></dc:title>
      </cc:Work>
    </rdf:RDF>
  </metadata>
  <g
     inkscape:label="Layer 1"
     inkscape:groupmode="layer"
     id="layer1"
     transform="translate(0,-280.06665)">
    <path
       inkscape:connector-curvature="0"
       style="display:inline;fill:#000000;fill-opacity:1;stroke:#000000;stroke-width:0.99999994;stroke-linecap:butt;stroke-linejoin:miter;stroke-miterlimit:20;stroke-dasharray:none;stroke-opacity:1;filter:url(#filter7009)"
       d="M 13.91,2.9100001 V 42.91 h 23 V 2.9100001 Z M 39.91,10.91 v 4 l 10,10 -2,2 -8,-8 v 4 l 9,9 -2,2 -6,-6 v 15 l 5,6 v 2 h 6 v -28 z m -24,1 h 8 v 15 h 4 v 3 h -7 v -15 h -5 z m 13,0 h 6 v 3 h -6 z m -24,1 c 0,0 -2,0 -2,2 v 8 c 0,0 -1e-5,2 2,2 0,0 1.99996,0 2,2 v 9 h 4 v -15 h -3 v -3 c 0,0 10e-6,-1 1,-1 h 2 v -1 c 0,0 0,-3 -3,-3 z"
       id="path3586-2-2"
       transform="matrix(0.26458334,0,0,0.26458334,1.2144375,281.41338)" />
    <path
       inkscape:connector-curvature="0"
       style="display:inline;fill:#ab968b;fill-opacity:1;stroke:none;stroke-width:0.26458332px;stroke-linecap:butt;stroke-linejoin:miter;stroke-opacity:1"
       d="m 4.8947925,282.18332 v 10.58333 h 6.0854205 v -10.58333 z m 0.52917,2.38125 h 2.11667 v 3.96875 h 1.05833 v 0.79375 h -1.85208 v -3.96875 h -1.32292 z m 3.43958,0 h 1.5875005 v 0.79375 H 8.8635425 Z"
       id="path3586-2" />
    <path
       style="display:inline;fill:#ab968b;fill-opacity:1;stroke:none;stroke-width:0.26458332px;stroke-linecap:butt;stroke-linejoin:miter;stroke-opacity:1"
       d="m 11.773964,284.29998 3.175,3.175 v 7.40834 h -1.5875 v -0.52917 l -1.32292,-1.5875 v -3.96875 l 1.5875,1.5875 0.52917,-0.52917 -2.38125,-2.38125 v -1.05833 l 2.11666,2.11667 0.52917,-0.52917 -2.64583,-2.64583 z"
       id="path3594-7"
       inkscape:connector-curvature="0"
       sodipodi:nodetypes="ccccccccccccccc" />
    <path
       style="display:inline;fill:#ab968b;fill-opacity:1;stroke:none;stroke-width:0.26458332px;stroke-linecap:butt;stroke-linejoin:miter;stroke-opacity:1"
       d="m 4.1010425,290.91457 v -3.96875 h -0.79375 v -0.79375 c 0,0 0,-0.26459 0.26458,-0.26459 h 0.52917 v -0.26458 c 0,0 0,-0.79375 -0.79375,-0.79375 h -0.79375 c 0,0 -0.52917,0 -0.52917,0.52917 v 2.11666 c 0,0 0,0.52917 0.52917,0.52917 0,0 0.52916,0 0.52917,0.52917 v 2.38125 z"
       id="path3653"
       inkscape:connector-curvature="0"
       sodipodi:nodetypes="ccccsccscsccscc" />
  </g>
</svg>
