<?xml version="1.0" encoding="UTF-8" standalone="no"?>
<!-- Created with Inkscape (http://www.inkscape.org/) -->

<svg
   xmlns:dc="http://purl.org/dc/elements/1.1/"
   xmlns:cc="http://creativecommons.org/ns#"
   xmlns:rdf="http://www.w3.org/1999/02/22-rdf-syntax-ns#"
   xmlns:svg="http://www.w3.org/2000/svg"
   xmlns="http://www.w3.org/2000/svg"
   xmlns:sodipodi="http://sodipodi.sourceforge.net/DTD/sodipodi-0.dtd"
   xmlns:inkscape="http://www.inkscape.org/namespaces/inkscape"
   width="64"
   height="64"
   viewBox="0 0 16.933333 16.933334"
   version="1.1"
   id="svg1401"
   inkscape:version="0.92.5 (2060ec1f9f, 2020-04-08)"
   sodipodi:docname="StatusEffect-Water Res S Icon MHW.svg">
  <defs
     id="defs1395">
    <pattern
       y="0"
       x="0"
       height="6"
       width="6"
       patternUnits="userSpaceOnUse"
       id="EMFhbasepattern" />
    <pattern
       y="0"
       x="0"
       height="6"
       width="6"
       patternUnits="userSpaceOnUse"
       id="EMFhbasepattern-9" />
    <pattern
       y="0"
       x="0"
       height="6"
       width="6"
       patternUnits="userSpaceOnUse"
       id="EMFhbasepattern-4" />
    <pattern
       y="0"
       x="0"
       height="6"
       width="6"
       patternUnits="userSpaceOnUse"
       id="EMFhbasepattern-92" />
    <filter
       inkscape:collect="always"
       style="color-interpolation-filters:sRGB"
       id="filter3083-4"
       x="-0.053749993"
       width="1.1075"
       y="-0.067894742"
       height="1.1357895">
      <feGaussianBlur
         inkscape:collect="always"
         stdDeviation="0.14221355"
         id="feGaussianBlur3085-8" />
    </filter>
    <filter
       inkscape:collect="always"
       style="color-interpolation-filters:sRGB"
       id="filter6342-5"
       x="-0.065714285"
       width="1.1314286"
       y="-0.055199999"
       height="1.1104">
      <feGaussianBlur
         inkscape:collect="always"
         stdDeviation="0.30427086"
         id="feGaussianBlur6344-7" />
    </filter>
  </defs>
  <sodipodi:namedview
     id="base"
     pagecolor="#ffffff"
     bordercolor="#666666"
     borderopacity="1.0"
     inkscape:pageopacity="0.0"
     inkscape:pageshadow="2"
     inkscape:zoom="2.8"
     inkscape:cx="82.366574"
     inkscape:cy="61.777668"
     inkscape:document-units="px"
     inkscape:current-layer="layer1"
     showgrid="false"
     units="px"
     inkscape:window-width="1920"
     inkscape:window-height="1017"
     inkscape:window-x="1912"
     inkscape:window-y="-8"
     inkscape:window-maximized="1" />
  <metadata
     id="metadata1398">
    <rdf:RDF>
      <cc:Work
         rdf:about="">
        <dc:format>image/svg+xml</dc:format>
        <dc:type
           rdf:resource="http://purl.org/dc/dcmitype/StillImage" />
        <dc:title></dc:title>
      </cc:Work>
    </rdf:RDF>
  </metadata>
  <g
     inkscape:label="Layer 1"
     inkscape:groupmode="layer"
     id="layer1"
     transform="translate(0,-280.06665)">
    <path
       style="display:inline;fill:#000000;fill-opacity:1;stroke:#000000;stroke-width:0.26458332;stroke-linecap:butt;stroke-linejoin:miter;stroke-miterlimit:20;stroke-dasharray:none;stroke-opacity:1;filter:url(#filter6342-5)"
       d="m 2.7080094,281.91873 1e-6,9.26042 3.7041663,3.96875 h 3.7041673 l 3.704166,-3.96875 -1e-6,-9.26042 z"
       id="path1838-7-2-1"
       inkscape:connector-curvature="0"
       sodipodi:nodetypes="ccccccc" />
    <path
       style="display:inline;fill:#75a5cc;fill-opacity:1;stroke:none;stroke-width:0.26458332px;stroke-linecap:butt;stroke-linejoin:miter;stroke-opacity:1"
       d="m 2.7080104,281.91873 1e-6,9.26041 3.7041663,3.96875 h 3.7041673 l 3.704167,-3.96875 -1e-6,-9.26041 z"
       id="path1838-7-7"
       inkscape:connector-curvature="0"
       sodipodi:nodetypes="ccccccc" />
    <path
       style="display:inline;fill:#4f697e;fill-opacity:1;stroke:none;stroke-width:0.26458332px;stroke-linecap:butt;stroke-linejoin:miter;stroke-opacity:1"
       d="m 3.2371774,282.4479 v 8.73124 l 3.1750003,3.43958 h 3.7041673 l 3.175,-3.43958 v -8.73124 z m 0.7937503,0.79375 h 8.4666673 v 7.67291 l -2.6458342,2.91042 H 6.6767607 l -2.645833,-2.91042 z"
       id="path1856-5-5"
       inkscape:connector-curvature="0"
       sodipodi:nodetypes="cccccccccccccc" />
    <path
       style="display:inline;fill:none;fill-opacity:1;stroke:#3d5977;stroke-width:1.05833328;stroke-linecap:butt;stroke-linejoin:miter;stroke-miterlimit:4;stroke-dasharray:none;stroke-opacity:1"
       d="m 8.2642579,284.56456 c -0.2396451,0.32483 -0.591374,2.42903 -1.5875001,3.43959 -0.9961239,1.01056 -1.3229169,1.34181 -1.3229169,2.38124 0,1.03943 0.6958428,1.85209 2.910417,1.85209 2.2145751,0 2.9104171,-0.81266 2.9104171,-1.85209 0,-1.03943 -0.326792,-1.37068 -1.3229171,-2.38124 -0.9961251,-1.01056 -1.347854,-3.11476 -1.5875,-3.43959 z"
       id="path1184-5-1"
       inkscape:connector-curvature="0"
       sodipodi:nodetypes="ccssssc" />
    <path
       style="display:inline;fill:#5e89ac;fill-opacity:1;stroke:none;stroke-width:0.26458332px;stroke-linecap:butt;stroke-linejoin:miter;stroke-opacity:1"
       d="m 8.2642618,284.56456 c -0.239645,0.32483 -0.5913739,2.42903 -1.5875,3.43959 -0.996124,1.01056 -1.3229169,1.34181 -1.3229169,2.38124 0,1.03943 0.6958428,1.85209 2.9104169,1.85209 2.2145752,0 2.9104172,-0.81266 2.9104172,-1.85209 0,-1.03943 -0.326792,-1.37068 -1.3229172,-2.38124 -0.996125,-1.01056 -1.3478539,-3.11476 -1.5875,-3.43959 z"
       id="path1184-5"
       inkscape:connector-curvature="0"
       sodipodi:nodetypes="ccssssc" />
    <path
       style="display:inline;fill:#386594;fill-opacity:1;stroke:none;stroke-width:0.26458332px;stroke-linecap:butt;stroke-linejoin:miter;stroke-opacity:1"
       d="m 6.4121787,289.85623 c 0,1.27602 1.0577531,1.5875 1.8520831,1.5875 0.79433,0 1.8520832,-0.31148 1.8520832,-1.5875 -0.2194762,0.58697 -1.0028911,1.05833 -1.8520832,1.05833 -0.849191,0 -1.632607,-0.47136 -1.8520831,-1.05833 z"
       id="path1166-2"
       inkscape:connector-curvature="0"
       sodipodi:nodetypes="cscsc" />
    <path
       style="display:inline;fill:#000000;fill-opacity:1;stroke:#000000;stroke-width:0.26458332;stroke-linecap:butt;stroke-linejoin:miter;stroke-miterlimit:20;stroke-dasharray:none;stroke-opacity:1;filter:url(#filter3083-4)"
       d="M 12.497594,294.88331 H 10.380927 L 9.5871768,292.76664 H 8.2642607 l 3.1749993,-2.91041 3.175002,2.91041 h -1.322918 z"
       id="path2046-1-9-4"
       inkscape:connector-curvature="0"
       sodipodi:nodetypes="cccccccc" />
    <path
       style="display:inline;fill:#7ac854;fill-opacity:1;stroke:none;stroke-width:0.26458332px;stroke-linecap:butt;stroke-linejoin:miter;stroke-opacity:1"
       d="m 12.497595,294.88331 h -2.116667 l -0.79375,-2.11667 H 8.2642618 l 3.1749992,-2.91041 3.175002,2.91041 h -1.322918 z"
       id="path2046-1-5"
       inkscape:connector-curvature="0"
       sodipodi:nodetypes="cccccccc" />
  </g>
</svg>
