<?xml version="1.0" encoding="UTF-8" standalone="no"?>
<!-- Created with Inkscape (http://www.inkscape.org/) -->

<svg
   xmlns:dc="http://purl.org/dc/elements/1.1/"
   xmlns:cc="http://creativecommons.org/ns#"
   xmlns:rdf="http://www.w3.org/1999/02/22-rdf-syntax-ns#"
   xmlns:svg="http://www.w3.org/2000/svg"
   xmlns="http://www.w3.org/2000/svg"
   xmlns:sodipodi="http://sodipodi.sourceforge.net/DTD/sodipodi-0.dtd"
   xmlns:inkscape="http://www.inkscape.org/namespaces/inkscape"
   width="64"
   height="64"
   viewBox="0 0 16.933333 16.933334"
   version="1.1"
   id="svg1401"
   inkscape:version="0.92.5 (2060ec1f9f, 2020-04-08)"
   sodipodi:docname="StatusEffect-Self Improvement S Icon MHWI.svg">
  <defs
     id="defs1395">
    <pattern
       y="0"
       x="0"
       height="6"
       width="6"
       patternUnits="userSpaceOnUse"
       id="EMFhbasepattern" />
    <pattern
       y="0"
       x="0"
       height="6"
       width="6"
       patternUnits="userSpaceOnUse"
       id="EMFhbasepattern-9" />
    <pattern
       y="0"
       x="0"
       height="6"
       width="6"
       patternUnits="userSpaceOnUse"
       id="EMFhbasepattern-4" />
    <pattern
       y="0"
       x="0"
       height="6"
       width="6"
       patternUnits="userSpaceOnUse"
       id="EMFhbasepattern-92" />
    <filter
       inkscape:collect="always"
       style="color-interpolation-filters:sRGB"
       id="filter6865"
       x="-0.07054054"
       width="1.1410811"
       y="-0.052200001"
       height="1.1044">
      <feGaussianBlur
         inkscape:collect="always"
         stdDeviation="1.0875"
         id="feGaussianBlur6867" />
    </filter>
  </defs>
  <sodipodi:namedview
     id="base"
     pagecolor="#ffffff"
     bordercolor="#666666"
     borderopacity="1.0"
     inkscape:pageopacity="0.0"
     inkscape:pageshadow="2"
     inkscape:zoom="2.8"
     inkscape:cx="20.223717"
     inkscape:cy="44.277668"
     inkscape:document-units="px"
     inkscape:current-layer="layer1"
     showgrid="false"
     units="px"
     inkscape:window-width="1920"
     inkscape:window-height="1017"
     inkscape:window-x="1912"
     inkscape:window-y="-8"
     inkscape:window-maximized="1" />
  <metadata
     id="metadata1398">
    <rdf:RDF>
      <cc:Work
         rdf:about="">
        <dc:format>image/svg+xml</dc:format>
        <dc:type
           rdf:resource="http://purl.org/dc/dcmitype/StillImage" />
        <dc:title></dc:title>
      </cc:Work>
    </rdf:RDF>
  </metadata>
  <g
     inkscape:label="Layer 1"
     inkscape:groupmode="layer"
     id="layer1"
     transform="translate(0,-280.06665)">
    <path
       style="display:inline;fill:#000000;fill-opacity:1;stroke:#000000;stroke-width:0.99999994;stroke-linecap:butt;stroke-linejoin:miter;stroke-miterlimit:20;stroke-dasharray:none;stroke-opacity:1;filter:url(#filter6865)"
       d="m 14.61,2.61 v 10 c 0,1 -1,1 -1,1 h -10 v 4 l 3,3 h 10 c 0.999999,0 1,-1 1,-1 v -13 h 4 v -2 l -3,-2 z m 7,7 v 37 c 0,0 -2e-6,2 -2,2 h -11 c 0,0 -2,0 -2,-2 v -7 c 0,0 -2e-6,-1 1,-1 h 6 v 4 h -3 v 1 c 0,0 3e-6,2 2,2 h 5 v -11 h -15 v 13 c 0,0 -10e-7,5 5,5 h 12 c 0,0 6,0 6,-6 v -30 l 5,4 h 4 l 3,-3 2,-4 h -7 l -5,-4 z"
       id="path4037-1"
       inkscape:connector-curvature="0"
       transform="matrix(0.26458334,0,0,0.26458334,2.8813124,281.22817)" />
    <path
       style="display:inline;fill:#7599bd;fill-opacity:1;stroke:none;stroke-width:0.26458332px;stroke-linecap:butt;stroke-linejoin:miter;stroke-opacity:1"
       d="m 13.361457,284.82915 h -1.852083 l -1.322915,-1.05833 H 8.5989578 v 9.78958 c 0,0 0,0.52917 -0.5291659,0.52917 -0.529167,0 -2.9104171,0 -2.9104171,0 0,0 -0.5291671,0 -0.5291671,-0.52917 0,-0.52917 0,-1.85208 0,-1.85208 0,0 0,-0.26459 0.264584,-0.26459 0.2645831,0 1.5875002,0 1.5875002,0 v 1.05834 h -0.79375 v 0.26458 c 0,0 0,0.52917 0.5291658,0.52917 0.5291672,0 1.3229172,0 1.3229172,0 V 290.3854 H 3.5718746 v 3.43958 c 0,0 0,1.32292 1.3229171,1.32292 1.322916,0 3.1750002,0 3.1750002,0 0,0 1.5874995,0 1.5874995,-1.5875 0,-1.5875 0,-7.9375 0,-7.9375 l 1.3229176,1.05833 h 1.058332 l 0.793751,-0.79375 z"
       id="path4037"
       inkscape:connector-curvature="0" />
    <path
       style="display:inline;fill:#527ba0;fill-opacity:1;stroke:none;stroke-width:0.26458332px;stroke-linecap:butt;stroke-linejoin:miter;stroke-opacity:1"
       d="M 8.5989578,282.97707 H 7.5406249 v 3.43958 c 0,0 0,0.26458 -0.264583,0.26458 -0.2645842,0 -2.6458342,0 -2.6458342,0 l -0.7937498,-0.79375 v -1.05833 h 2.645834 c 0,0 0.264583,0 0.264583,-0.26458 0,-0.26459 0,-2.64584 0,-2.64584 h 1.0583329 l 0.79375,0.52917 z"
       id="path4039"
       inkscape:connector-curvature="0" />
  </g>
</svg>
