<?xml version="1.0" encoding="UTF-8" standalone="no"?>
<!-- Created with Inkscape (http://www.inkscape.org/) -->

<svg
   xmlns:dc="http://purl.org/dc/elements/1.1/"
   xmlns:cc="http://creativecommons.org/ns#"
   xmlns:rdf="http://www.w3.org/1999/02/22-rdf-syntax-ns#"
   xmlns:svg="http://www.w3.org/2000/svg"
   xmlns="http://www.w3.org/2000/svg"
   xmlns:sodipodi="http://sodipodi.sourceforge.net/DTD/sodipodi-0.dtd"
   xmlns:inkscape="http://www.inkscape.org/namespaces/inkscape"
   width="64"
   height="64"
   viewBox="0 0 16.933333 16.933334"
   version="1.1"
   id="svg1401"
   inkscape:version="0.92.5 (2060ec1f9f, 2020-04-08)"
   sodipodi:docname="StatusEffect-Health Up Icon MHWI.svg">
  <defs
     id="defs1395">
    <pattern
       y="0"
       x="0"
       height="6"
       width="6"
       patternUnits="userSpaceOnUse"
       id="EMFhbasepattern" />
    <pattern
       y="0"
       x="0"
       height="6"
       width="6"
       patternUnits="userSpaceOnUse"
       id="EMFhbasepattern-9" />
    <pattern
       y="0"
       x="0"
       height="6"
       width="6"
       patternUnits="userSpaceOnUse"
       id="EMFhbasepattern-4" />
    <pattern
       y="0"
       x="0"
       height="6"
       width="6"
       patternUnits="userSpaceOnUse"
       id="EMFhbasepattern-92" />
    <filter
       inkscape:collect="always"
       style="color-interpolation-filters:sRGB"
       id="filter6552-7"
       x="-0.076764703"
       width="1.1535294"
       y="-0.049245283"
       height="1.0984906">
      <feGaussianBlur
         inkscape:collect="always"
         stdDeviation="1.0875"
         id="feGaussianBlur6554-8" />
    </filter>
  </defs>
  <sodipodi:namedview
     id="base"
     pagecolor="#ffffff"
     bordercolor="#666666"
     borderopacity="1.0"
     inkscape:pageopacity="0.0"
     inkscape:pageshadow="2"
     inkscape:zoom="2.8"
     inkscape:cx="25.223717"
     inkscape:cy="54.277668"
     inkscape:document-units="px"
     inkscape:current-layer="layer1"
     showgrid="false"
     units="px"
     inkscape:window-width="1920"
     inkscape:window-height="1017"
     inkscape:window-x="1912"
     inkscape:window-y="-8"
     inkscape:window-maximized="1" />
  <metadata
     id="metadata1398">
    <rdf:RDF>
      <cc:Work
         rdf:about="">
        <dc:format>image/svg+xml</dc:format>
        <dc:type
           rdf:resource="http://purl.org/dc/dcmitype/StillImage" />
        <dc:title></dc:title>
      </cc:Work>
    </rdf:RDF>
  </metadata>
  <g
     inkscape:label="Layer 1"
     inkscape:groupmode="layer"
     id="layer1"
     transform="translate(0,-280.06665)">
    <path
       style="display:inline;fill:#000000;fill-opacity:1;stroke:#000000;stroke-width:0.99999994;stroke-linecap:butt;stroke-linejoin:miter;stroke-miterlimit:20;stroke-dasharray:none;stroke-opacity:1;filter:url(#filter6552-7)"
       d="m 13.61,2.61 v 4 h -3 c 0,0 -1.0000001,0 -1.0000001,1 v 2 c 0,3 4.0000101,3 4.0000001,7 0,4 -2.99999,5 -6.0000001,5 -3,0 -5,2 -5,5 v 14 c 0,4.00001 8.0000101,15 13.0000001,15 h 4 4 c 5.00001,0 13,-10.99999 13,-15 v -14 c 0,-3 -1.99999,-5 -5,-5 -3,0 -5.99999,-1 -6,-5 0,-4 4,-4 4,-7 v -2 c 0,-1 -1,-1 -1,-1 h -3 v -4 z"
       id="path2050-23-0"
       inkscape:connector-curvature="0"
       transform="matrix(0.26458334,0,0,0.26458334,3.2781875,280.8313)" />
    <path
       style="display:inline;fill:#806145;fill-opacity:1;stroke:none;stroke-width:0.26458332px;stroke-linecap:butt;stroke-linejoin:miter;stroke-opacity:1"
       d="m 6.8791665,282.5802 v -1.05834 h 3.1750005 v 1.05834 l 0.52917,0.52916 v 0.52917 H 6.3500005 v -0.52917 z"
       id="path2050-2"
       inkscape:connector-curvature="0"
       sodipodi:nodetypes="ccccccccc" />
    <path
       style="display:inline;fill:#82b16b;fill-opacity:1;stroke:none;stroke-width:0.26458332px;stroke-linecap:butt;stroke-linejoin:miter;stroke-opacity:1"
       d="m 6.0854165,282.5802 c 0,0 -0.264584,0 -0.264584,0.26458 v 0.52917 c 0,0.79375 1.058334,0.79375 1.058334,1.85208 0,1.05833 -0.79375,1.32292 -1.5875,1.32292 -0.79375,0 -1.322917,0.52916 -1.322917,1.32291 v 3.70417 c 0,1.05833 2.116667,3.96875 3.439583,3.96875 h 1.058334 1.058333 c 1.3229175,0 3.4395875,-2.91042 3.4395875,-3.96875 v -3.70417 c 0,-0.79375 -0.52917,-1.32291 -1.32292,-1.32291 -0.79375,0 -1.5875,-0.26459 -1.5875,-1.32292 0,-1.05833 1.05833,-1.05833 1.05833,-1.85208 v -0.52917 c 0,-0.26458 -0.26458,-0.26458 -0.26458,-0.26458 h -0.79375 v 0.79375 h -1.5875005 -1.5875 v -0.79375 z"
       id="path2028-5"
       inkscape:connector-curvature="0" />
    <path
       style="display:inline;fill:#3d7035;fill-opacity:1;stroke:none;stroke-width:0.26458332px;stroke-linecap:butt;stroke-linejoin:miter;stroke-opacity:1"
       d="m 9.2604165,293.16353 h -1.5875 l -0.529166,-2.11667 h -1.852084 l 3.175,-3.70416 3.1750005,3.70416 H 9.7895835 Z"
       id="path2046-6"
       inkscape:connector-curvature="0"
       sodipodi:nodetypes="cccccccc" />
  </g>
</svg>
